<?xml version="1.0" encoding="UTF-8"?>
<svg id="Layer_1" xmlns="http://www.w3.org/2000/svg" version="1.1" viewBox="0 0 612 792">
  <!-- Generator: Adobe Illustrator 29.6.1, SVG Export Plug-In . SVG Version: 2.1.1 Build 9)  -->
  <defs>
    <style>
      .st0 {
        font-family: ArialMT, Arial;
        font-size: 2.5px;
        isolation: isolate;
      }

      .st1 {
        fill: #676767;
      }
    </style>
  </defs>
  <circle class="st1" cx="256.39" cy="77.03" r="2.88"/>
  <text class="st0" transform="translate(254.3 78.03)"><tspan x="0" y="0">128</tspan></text>
  <circle class="st1" cx="256.39" cy="83.19" r="2.88"/>
  <text class="st0" transform="translate(254.3 84.19)"><tspan x="0" y="0">129</tspan></text>
  <circle class="st1" cx="261.33" cy="87.74" r="2.88"/>
  <text class="st0" transform="translate(260.63 88.74)"><tspan x="0" y="0">130</tspan></text>
  <circle class="st1" cx="256.39" cy="92.53" r="2.88"/>
  <text class="st0" transform="translate(254.3 93.53)"><tspan x="0" y="0">131</tspan></text>
  <circle class="st1" cx="256.39" cy="98.69" r="2.88"/>
  <text class="st0" transform="translate(254.3 99.69)"><tspan x="0" y="0">132</tspan></text>
  <circle class="st1" cx="256.39" cy="105.03" r="2.88"/>
  <text class="st0" transform="translate(254.3 106.03)"><tspan x="0" y="0">133</tspan></text>
  <circle class="st1" cx="256.39" cy="111.02" r="2.88"/>
  <text class="st0" transform="translate(254.3 112.02)"><tspan x="0" y="0">134</tspan></text>
  <circle class="st1" cx="256.39" cy="120.77" r="2.88"/>
  <text class="st0" transform="translate(254.3 121.77)"><tspan x="0" y="0">135</tspan></text>
  <circle class="st1" cx="256.39" cy="153.44" r="2.88"/>
  <text class="st0" transform="translate(254.3 154.44)"><tspan x="0" y="0">136</tspan></text>
  <circle class="st1" cx="256.39" cy="159.84" r="2.88"/>
  <text class="st0" transform="translate(254.3 160.84)"><tspan x="0" y="0">137</tspan></text>
  <circle class="st1" cx="256.39" cy="166.18" r="2.88"/>
  <text class="st0" transform="translate(254.3 167.18)"><tspan x="0" y="0">138</tspan></text>
  <circle class="st1" cx="256.39" cy="204.62" r="2.88"/>
  <text class="st0" transform="translate(254.3 205.62)"><tspan x="0" y="0">139</tspan></text>
  <circle class="st1" cx="256.39" cy="210.81" r="2.88"/>
  <text class="st0" transform="translate(254.3 211.81)"><tspan x="0" y="0">140</tspan></text>
  <circle class="st1" cx="256.39" cy="217" r="2.88"/>
  <text class="st0" transform="translate(254.3 218)"><tspan x="0" y="0">141</tspan></text>
  <circle class="st1" cx="256.39" cy="223.19" r="2.88"/>
  <text class="st0" transform="translate(254.3 224.19)"><tspan x="0" y="0">142</tspan></text>
  <circle class="st1" cx="256.39" cy="229.38" r="2.88"/>
  <text class="st0" transform="translate(254.3 230.38)"><tspan x="0" y="0">143</tspan></text>
  <circle class="st1" cx="256.39" cy="235.57" r="2.88"/>
  <text class="st0" transform="translate(254.3 236.57)"><tspan x="0" y="0">144</tspan></text>
  <circle class="st1" cx="256.39" cy="241.77" r="2.88"/>
  <text class="st0" transform="translate(254.3 242.77)"><tspan x="0" y="0">145</tspan></text>
  <circle class="st1" cx="256.39" cy="247.96" r="2.88"/>
  <text class="st0" transform="translate(254.3 248.96)"><tspan x="0" y="0">146</tspan></text>
  <circle class="st1" cx="256.39" cy="254.15" r="2.88"/>
  <text class="st0" transform="translate(254.3 255.15)"><tspan x="0" y="0">147</tspan></text>
  <circle class="st1" cx="256.39" cy="260.34" r="2.88"/>
  <text class="st0" transform="translate(254.3 261.34)"><tspan x="0" y="0">148</tspan></text>
  <circle class="st1" cx="256.39" cy="266.53" r="2.88"/>
  <text class="st0" transform="translate(254.3 267.53)"><tspan x="0" y="0">149</tspan></text>
  <circle class="st1" cx="244.69" cy="204.62" r="2.88"/>
  <text class="st0" transform="translate(242.6 205.62)"><tspan x="0" y="0">164</tspan></text>
  <circle class="st1" cx="244.69" cy="210.81" r="2.88"/>
  <text class="st0" transform="translate(242.6 211.81)"><tspan x="0" y="0">163</tspan></text>
  <circle class="st1" cx="244.69" cy="217" r="2.88"/>
  <text class="st0" transform="translate(242.6 218)"><tspan x="0" y="0">162</tspan></text>
  <circle class="st1" cx="244.69" cy="223.19" r="2.88"/>
  <text class="st0" transform="translate(242.6 224.19)"><tspan x="0" y="0">161</tspan></text>
  <circle class="st1" cx="244.69" cy="229.38" r="2.88"/>
  <text class="st0" transform="translate(242.6 230.38)"><tspan x="0" y="0">160</tspan></text>
  <circle class="st1" cx="244.69" cy="235.57" r="2.88"/>
  <text class="st0" transform="translate(242.6 236.57)"><tspan x="0" y="0">159</tspan></text>
  <circle class="st1" cx="244.69" cy="241.77" r="2.88"/>
  <text class="st0" transform="translate(242.6 242.77)"><tspan x="0" y="0">158</tspan></text>
  <circle class="st1" cx="244.69" cy="247.96" r="2.88"/>
  <text class="st0" transform="translate(242.6 248.96)"><tspan x="0" y="0">157</tspan></text>
  <circle class="st1" cx="244.69" cy="254.15" r="2.88"/>
  <text class="st0" transform="translate(242.6 255.15)"><tspan x="0" y="0">156</tspan></text>
  <circle class="st1" cx="244.69" cy="260.34" r="2.88"/>
  <text class="st0" transform="translate(242.6 261.34)"><tspan x="0" y="0">155</tspan></text>
  <circle class="st1" cx="244.69" cy="266.53" r="2.88"/>
  <text class="st0" transform="translate(242.6 267.53)"><tspan x="0" y="0">154</tspan></text>
  <circle class="st1" cx="294.71" cy="251.58" r="2.88"/>
  <text class="st0" transform="translate(292.62 252.58)"><tspan x="0" y="0">227</tspan></text>
  <circle class="st1" cx="294.71" cy="257.77" r="2.88"/>
  <text class="st0" transform="translate(292.62 258.77)"><tspan x="0" y="0">228</tspan></text>
  <circle class="st1" cx="294.71" cy="263.96" r="2.88"/>
  <text class="st0" transform="translate(292.62 264.96)"><tspan x="0" y="0">229</tspan></text>
  <circle class="st1" cx="294.71" cy="270.15" r="2.88"/>
  <text class="st0" transform="translate(292.62 271.15)"><tspan x="0" y="0">230</tspan></text>
  <circle class="st1" cx="294.71" cy="276.34" r="2.88"/>
  <text class="st0" transform="translate(292.62 277.34)"><tspan x="0" y="0">231</tspan></text>
  <circle class="st1" cx="294.71" cy="282.53" r="2.88"/>
  <text class="st0" transform="translate(292.62 283.53)"><tspan x="0" y="0">232</tspan></text>
  <circle class="st1" cx="294.71" cy="288.72" r="2.88"/>
  <text class="st0" transform="translate(292.62 289.72)"><tspan x="0" y="0">233</tspan></text>
  <circle class="st1" cx="294.71" cy="294.91" r="2.88"/>
  <text class="st0" transform="translate(292.62 295.91)"><tspan x="0" y="0">234</tspan></text>
  <circle class="st1" cx="306.36" cy="251.58" r="2.88"/>
  <text class="st0" transform="translate(304.27 252.58)"><tspan x="0" y="0">247</tspan></text>
  <circle class="st1" cx="306.36" cy="257.77" r="2.88"/>
  <text class="st0" transform="translate(304.27 258.77)"><tspan x="0" y="0">246</tspan></text>
  <circle class="st1" cx="306.36" cy="263.96" r="2.88"/>
  <text class="st0" transform="translate(304.27 264.96)"><tspan x="0" y="0">245</tspan></text>
  <circle class="st1" cx="306.36" cy="270.15" r="2.88"/>
  <text class="st0" transform="translate(304.27 271.15)"><tspan x="0" y="0">244</tspan></text>
  <circle class="st1" cx="306.36" cy="276.34" r="2.88"/>
  <text class="st0" transform="translate(304.27 277.34)"><tspan x="0" y="0">243</tspan></text>
  <circle class="st1" cx="306.36" cy="282.53" r="2.88"/>
  <text class="st0" transform="translate(304.27 283.53)"><tspan x="0" y="0">242</tspan></text>
  <circle class="st1" cx="306.36" cy="288.72" r="2.88"/>
  <text class="st0" transform="translate(304.27 289.72)"><tspan x="0" y="0">241</tspan></text>
  <circle class="st1" cx="306.36" cy="294.91" r="2.88"/>
  <text class="st0" transform="translate(304.27 295.91)"><tspan x="0" y="0">240</tspan></text>
  <circle class="st1" cx="294.71" cy="174.75" r="2.88"/>
  <text class="st0" transform="translate(292.62 175.75)"><tspan x="0" y="0">215</tspan></text>
  <circle class="st1" cx="294.71" cy="180.94" r="2.88"/>
  <text class="st0" transform="translate(292.62 181.94)"><tspan x="0" y="0">216</tspan></text>
  <circle class="st1" cx="294.71" cy="187.13" r="2.88"/>
  <text class="st0" transform="translate(292.62 188.13)"><tspan x="0" y="0">217</tspan></text>
  <circle class="st1" cx="294.71" cy="205.86" r="2.88"/>
  <text class="st0" transform="translate(292.62 206.86)"><tspan x="0" y="0">220</tspan></text>
  <circle class="st1" cx="294.71" cy="212.05" r="2.88"/>
  <text class="st0" transform="translate(292.62 213.05)"><tspan x="0" y="0">221</tspan></text>
  <circle class="st1" cx="294.71" cy="218.24" r="2.88"/>
  <text class="st0" transform="translate(292.62 219.24)"><tspan x="0" y="0">222</tspan></text>
  <circle class="st1" cx="294.71" cy="224.43" r="2.88"/>
  <text class="st0" transform="translate(292.62 225.43)"><tspan x="0" y="0">223</tspan></text>
  <circle class="st1" cx="294.71" cy="232.48" r="2.88"/>
  <text class="st0" transform="translate(292.62 233.48)"><tspan x="0" y="0">224</tspan></text>
  <circle class="st1" cx="306.36" cy="174.75" r="2.88"/>
  <text class="st0" transform="translate(304.27 175.75)"><tspan x="0" y="0">105</tspan></text>
  <circle class="st1" cx="306.36" cy="180.94" r="2.88"/>
  <text class="st0" transform="translate(304.27 181.94)"><tspan x="0" y="0">104</tspan></text>
  <circle class="st1" cx="306.36" cy="187.13" r="2.88"/>
  <text class="st0" transform="translate(304.27 188.13)"><tspan x="0" y="0">103</tspan></text>
  <circle class="st1" cx="306.36" cy="205.86" r="2.88"/>
  <text class="st0" transform="translate(304.27 206.86)"><tspan x="0" y="0">253</tspan></text>
  <circle class="st1" cx="306.36" cy="212.05" r="2.88"/>
  <text class="st0" transform="translate(304.27 213.05)"><tspan x="0" y="0">252</tspan></text>
  <circle class="st1" cx="306.36" cy="218.24" r="2.88"/>
  <text class="st0" transform="translate(304.27 219.24)"><tspan x="0" y="0">251</tspan></text>
  <circle class="st1" cx="306.36" cy="224.43" r="2.88"/>
  <text class="st0" transform="translate(304.27 225.43)"><tspan x="0" y="0">250</tspan></text>
  <circle class="st1" cx="306.36" cy="232.48" r="2.88"/>
  <text class="st0" transform="translate(304.27 233.48)"><tspan x="0" y="0">248</tspan></text>
  <circle class="st1" cx="244.69" cy="153.41" r="2.88"/>
  <text class="st0" transform="translate(242.6 154.41)"><tspan x="0" y="0">182</tspan></text>
  <circle class="st1" cx="244.69" cy="159.6" r="2.88"/>
  <text class="st0" transform="translate(242.6 160.6)"><tspan x="0" y="0">181</tspan></text>
  <circle class="st1" cx="244.69" cy="165.79" r="2.88"/>
  <text class="st0" transform="translate(242.6 166.79)"><tspan x="0" y="0">180</tspan></text>
  <circle class="st1" cx="241.01" cy="187.76" r="2.88"/>
  <text class="st0" transform="translate(239.62 188.76)"><tspan x="0" y="0">175</tspan></text>
  <circle class="st1" cx="234.82" cy="187.84" r="2.88"/>
  <text class="st0" transform="translate(233.43 188.84)"><tspan x="0" y="0">174</tspan></text>
  <circle class="st1" cx="228.63" cy="187.84" r="2.88"/>
  <text class="st0" transform="translate(227.24 188.84)"><tspan x="0" y="0">173</tspan></text>
  <circle class="st1" cx="241.01" cy="199.28" r="2.88"/>
  <text class="st0" transform="translate(239.62 200.28)"><tspan x="0" y="0">165</tspan></text>
  <circle class="st1" cx="234.82" cy="199.37" r="2.88"/>
  <text class="st0" transform="translate(233.43 200.37)"><tspan x="0" y="0">166</tspan></text>
  <circle class="st1" cx="228.63" cy="199.37" r="2.88"/>
  <text class="st0" transform="translate(227.24 200.37)"><tspan x="0" y="0">167</tspan></text>
  <circle class="st1" cx="311.46" cy="228.95" r="2.88"/>
  <text class="st0" transform="translate(310.07 229.95)"><tspan x="0" y="0">249</tspan></text>
  <circle class="st1" cx="300.31" cy="246.25" r="2.88"/>
  <text class="st0" transform="translate(298.92 247.25)"><tspan x="0" y="0">226</tspan></text>
  <circle class="st1" cx="290.98" cy="239.87" r="2.88"/>
  <text class="st0" transform="translate(289.59 240.87)"><tspan x="0" y="0">225</tspan></text>
  <circle class="st1" cx="300.44" cy="200.43" r="2.88"/>
  <text class="st0" transform="translate(299.05 201.43)"><tspan x="0" y="0">219</tspan></text>
  <circle class="st1" cx="291.11" cy="194.05" r="2.88"/>
  <text class="st0" transform="translate(289.72 195.05)"><tspan x="0" y="0">218</tspan></text>
  <circle class="st1" cx="292.82" cy="301.11" r="2.88"/>
  <text class="st0" transform="translate(291.43 302.11)"><tspan x="0" y="0">235</tspan></text>
  <circle class="st1" cx="308.54" cy="301.11" r="2.88"/>
  <text class="st0" transform="translate(307.15 302.11)"><tspan x="0" y="0">239</tspan></text>
  <circle class="st1" cx="306.41" cy="307.3" r="2.88"/>
  <text class="st0" transform="translate(305.02 308.3)"><tspan x="0" y="0">238</tspan></text>
  <circle class="st1" cx="300.59" cy="310.18" r="2.88"/>
  <text class="st0" transform="translate(299.2 311.18)"><tspan x="0" y="0">237</tspan></text>
  <circle class="st1" cx="294.76" cy="307.3" r="2.88"/>
  <text class="st0" transform="translate(293.37 308.3)"><tspan x="0" y="0">236</tspan></text>
  <circle class="st1" cx="257.67" cy="273.46" r="2.88"/>
  <text class="st0" transform="translate(256.28 274.46)"><tspan x="0" y="0">150</tspan></text>
  <circle class="st1" cx="254.17" cy="279.22" r="2.88" transform="translate(-62.16 485.38) rotate(-80.78)"/>
  <text class="st0" transform="translate(252.78 280.22)"><tspan x="0" y="0">151</tspan></text>
  <circle class="st1" cx="247.27" cy="279.22" r="2.88"/>
  <text class="st0" transform="translate(245.88 280.22)"><tspan x="0" y="0">152</tspan></text>
  <circle class="st1" cx="243.47" cy="273.2" r="2.88"/>
  <text class="st0" transform="translate(242.08 274.2)"><tspan x="0" y="0">153</tspan></text>
  <circle class="st1" cx="334.81" cy="256.6" r="2.88"/>
  <text class="st0" transform="translate(332.72 257.6)"><tspan x="0" y="0">261</tspan></text>
  <circle class="st1" cx="334.81" cy="262.79" r="2.88"/>
  <text class="st0" transform="translate(332.72 263.79)"><tspan x="0" y="0">260</tspan></text>
  <circle class="st1" cx="334.81" cy="268.98" r="2.88"/>
  <text class="st0" transform="translate(332.72 269.98)"><tspan x="0" y="0">259</tspan></text>
  <circle class="st1" cx="334.81" cy="275.17" r="2.88"/>
  <text class="st0" transform="translate(332.72 276.17)"><tspan x="0" y="0">258</tspan></text>
  <circle class="st1" cx="334.81" cy="281.37" r="2.88"/>
  <text class="st0" transform="translate(332.72 282.37)"><tspan x="0" y="0">257</tspan></text>
  <circle class="st1" cx="334.81" cy="287.56" r="2.88"/>
  <text class="st0" transform="translate(332.72 288.56)"><tspan x="0" y="0">256</tspan></text>
  <circle class="st1" cx="334.81" cy="293.75" r="2.88"/>
  <text class="st0" transform="translate(332.72 294.75)"><tspan x="0" y="0">255</tspan></text>
  <circle class="st1" cx="334.81" cy="299.94" r="2.88"/>
  <text class="st0" transform="translate(332.72 300.94)"><tspan x="0" y="0">254</tspan></text>
  <circle class="st1" cx="334.81" cy="207.07" r="2.88"/>
  <text class="st0" transform="translate(332.72 208.07)"><tspan x="0" y="0">269</tspan></text>
  <circle class="st1" cx="334.81" cy="200.88" r="2.88"/>
  <text class="st0" transform="translate(332.72 201.88)"><tspan x="0" y="0">270</tspan></text>
  <circle class="st1" cx="334.81" cy="213.26" r="2.88"/>
  <text class="st0" transform="translate(332.72 214.26)"><tspan x="0" y="0">268</tspan></text>
  <circle class="st1" cx="334.81" cy="219.45" r="2.88"/>
  <text class="st0" transform="translate(332.72 220.45)"><tspan x="0" y="0">267</tspan></text>
  <circle class="st1" cx="324.96" cy="174.03" r="2.88"/>
  <text class="st0" transform="translate(322.87 175.03)"><tspan x="0" y="0">101</tspan></text>
  <circle class="st1" cx="324.96" cy="167.84" r="2.88"/>
  <text class="st0" transform="translate(322.87 168.84)"><tspan x="0" y="0">102</tspan></text>
  <circle class="st1" cx="324.77" cy="180.22" r="2.88"/>
  <text class="st0" transform="translate(322.68 181.22)"><tspan x="0" y="0">103</tspan></text>
  <circle class="st1" cx="324.85" cy="186.41" r="2.88"/>
  <text class="st0" transform="translate(322.76 187.41)"><tspan x="0" y="0">104</tspan></text>
  <circle class="st1" cx="334.81" cy="225.65" r="2.88"/>
  <text class="st0" transform="translate(332.72 226.65)"><tspan x="0" y="0">266</tspan></text>
  <circle class="st1" cx="334.81" cy="231.84" r="2.88"/>
  <text class="st0" transform="translate(332.72 232.84)"><tspan x="0" y="0">265</tspan></text>
  <circle class="st1" cx="334.81" cy="238.03" r="2.88"/>
  <text class="st0" transform="translate(332.72 239.03)"><tspan x="0" y="0">264</tspan></text>
  <circle class="st1" cx="334.81" cy="244.22" r="2.88"/>
  <text class="st0" transform="translate(332.72 245.22)"><tspan x="0" y="0">263</tspan></text>
  <circle class="st1" cx="334.81" cy="250.41" r="2.88"/>
  <text class="st0" transform="translate(332.72 251.41)"><tspan x="0" y="0">262</tspan></text>
  <circle class="st1" cx="271.23" cy="50.94" r="2.88"/>
  <text class="st0" transform="translate(269.24 51.94)"><tspan x="0" y="0">125</tspan></text>
  <circle class="st1" cx="239.69" cy="126.33" r="2.88"/>
  <text class="st0" transform="translate(237.79 127.33)"><tspan x="0" y="0">186</tspan></text>
  <circle class="st1" cx="234.82" cy="132.06" r="2.88"/>
  <text class="st0" transform="translate(232.83 133.06)"><tspan x="0" y="0">185</tspan></text>
  <circle class="st1" cx="235.14" cy="140.09" r="2.88"/>
  <text class="st0" transform="translate(233.15 141.09)"><tspan x="0" y="0">184</tspan></text>
  <circle class="st1" cx="239.93" cy="146.22" r="2.88"/>
  <text class="st0" transform="translate(237.94 147.22)"><tspan x="0" y="0">183</tspan></text>
  <circle class="st1" cx="239.69" cy="169.65" r="2.88"/>
  <text class="st0" transform="translate(237.7 170.65)"><tspan x="0" y="0">178</tspan></text>
  <circle class="st1" cx="235.26" cy="174.24" r="2.88"/>
  <text class="st0" transform="translate(233.27 175.24)"><tspan x="0" y="0">178</tspan></text>
  <circle class="st1" cx="245.69" cy="183.1" r="2.88"/>
  <text class="st0" transform="translate(243.6 184.1)"><tspan x="0" y="0">176</tspan></text>
  <circle class="st1" cx="221.2" cy="186.22" r="2.88"/>
  <text class="st0" transform="translate(219.21 187.22)"><tspan x="0" y="0">172</tspan></text>
  <circle class="st1" cx="220.9" cy="201.21" r="2.88"/>
  <text class="st0" transform="translate(218.91 202.21)"><tspan x="0" y="0">168</tspan></text>
  <circle class="st1" cx="214.24" cy="199.44" r="2.88"/>
  <text class="st0" transform="translate(212.15 200.44)"><tspan x="0" y="0">169</tspan></text>
  <circle class="st1" cx="211.61" cy="193.39" r="2.88"/>
  <text class="st0" transform="translate(209.52 194.39)"><tspan x="0" y="0">170</tspan></text>
  <circle class="st1" cx="214.61" cy="187.34" r="2.88"/>
  <text class="st0" transform="translate(212.52 188.34)"><tspan x="0" y="0">171</tspan></text>
  <circle class="st1" cx="240.97" cy="178.36" r="2.88"/>
  <text class="st0" transform="translate(238.88 179.36)"><tspan x="0" y="0">177</tspan></text>
  <circle class="st1" cx="287.16" cy="68.36" r="2.88"/>
  <text class="st0" transform="translate(285.07 69.36)"><tspan x="0" y="0">199</tspan></text>
  <circle class="st1" cx="280.97" cy="68.36" r="2.88"/>
  <text class="st0" transform="translate(278.88 69.36)"><tspan x="0" y="0">198</tspan></text>
  <circle class="st1" cx="274.78" cy="68.39" r="2.88"/>
  <text class="st0" transform="translate(272.69 69.39)"><tspan x="0" y="0">197</tspan></text>
  <circle class="st1" cx="268.59" cy="68.39" r="2.88"/>
  <text class="st0" transform="translate(266.5 69.39)"><tspan x="0" y="0">196</tspan></text>
  <circle class="st1" cx="262.4" cy="68.39" r="2.88"/>
  <text class="st0" transform="translate(260.31 69.39)"><tspan x="0" y="0">195</tspan></text>
  <circle class="st1" cx="286.92" cy="56.7" r="2.88"/>
  <text class="st0" transform="translate(284.83 57.7)"><tspan x="0" y="0">122</tspan></text>
  <circle class="st1" cx="280.73" cy="56.7" r="2.88"/>
  <text class="st0" transform="translate(278.64 57.7)"><tspan x="0" y="0">123</tspan></text>
  <circle class="st1" cx="274.54" cy="56.73" r="2.88"/>
  <text class="st0" transform="translate(272.45 57.73)"><tspan x="0" y="0">124</tspan></text>
  <circle class="st1" cx="268.35" cy="56.73" r="2.88"/>
  <text class="st0" transform="translate(266.26 57.73)"><tspan x="0" y="0">126</tspan></text>
  <circle class="st1" cx="262.16" cy="56.73" r="2.88"/>
  <text class="st0" transform="translate(260.07 57.73)"><tspan x="0" y="0">127</tspan></text>
  <circle class="st1" cx="240.16" cy="116.21" r="2.88"/>
  <text class="st0" transform="translate(238.07 117.21)"><tspan x="0" y="0">188</tspan></text>
  <circle class="st1" cx="244.69" cy="76.85" r="2.88"/>
  <text class="st0" transform="translate(242.6 77.85)"><tspan x="0" y="0">194</tspan></text>
  <circle class="st1" cx="244.69" cy="83.04" r="2.88"/>
  <text class="st0" transform="translate(242.6 84.04)"><tspan x="0" y="0">193</tspan></text>
  <circle class="st1" cx="244.69" cy="92.53" r="2.88"/>
  <text class="st0" transform="translate(242.6 93.53)"><tspan x="0" y="0">192</tspan></text>
  <circle class="st1" cx="244.69" cy="98.72" r="2.88"/>
  <text class="st0" transform="translate(242.6 99.72)"><tspan x="0" y="0">191</tspan></text>
  <circle class="st1" cx="244.69" cy="104.92" r="2.88"/>
  <text class="st0" transform="translate(242.6 105.92)"><tspan x="0" y="0">190</tspan></text>
  <circle class="st1" cx="244.69" cy="111.11" r="2.88"/>
  <text class="st0" transform="translate(242.6 112.11)"><tspan x="0" y="0">189</tspan></text>
  <circle class="st1" cx="244.69" cy="120.61" r="2.88"/>
  <text class="st0" transform="translate(242.6 121.61)"><tspan x="0" y="0">187</tspan></text>
  <circle class="st1" cx="310.76" cy="112.14" r="2.88"/>
  <text class="st0" transform="translate(308.67 113.14)"><tspan x="0" y="0">115</tspan></text>
  <circle class="st1" cx="289.11" cy="140" r="2.88"/>
  <text class="st0" transform="translate(287.02 141)"><tspan x="0" y="0">210</tspan></text>
  <circle class="st1" cx="306.36" cy="117.92" r="2.88"/>
  <text class="st0" transform="translate(304.37 118.92)"><tspan x="0" y="0">114</tspan></text>
  <circle class="st1" cx="306.36" cy="124.11" r="2.88"/>
  <text class="st0" transform="translate(304.37 125.11)"><tspan x="0" y="0">113</tspan></text>
  <circle class="st1" cx="306.36" cy="130.3" r="2.88"/>
  <text class="st0" transform="translate(304.37 131.3)"><tspan x="0" y="0">112</tspan></text>
  <circle class="st1" cx="306.36" cy="136.49" r="2.88"/>
  <text class="st0" transform="translate(304.46 137.49)"><tspan x="0" y="0">111</tspan></text>
  <circle class="st1" cx="306.36" cy="142.68" r="2.88"/>
  <text class="st0" transform="translate(304.37 143.68)"><tspan x="0" y="0">110</tspan></text>
  <circle class="st1" cx="306.36" cy="148.87" r="2.88"/>
  <text class="st0" transform="translate(304.27 149.87)"><tspan x="0" y="0">109</tspan></text>
  <circle class="st1" cx="306.36" cy="155.06" r="2.88"/>
  <text class="st0" transform="translate(304.27 156.06)"><tspan x="0" y="0">108</tspan></text>
  <circle class="st1" cx="306.36" cy="161.26" r="2.88"/>
  <text class="st0" transform="translate(304.27 162.26)"><tspan x="0" y="0">107</tspan></text>
  <circle class="st1" cx="294.71" cy="117.92" r="2.88"/>
  <text class="st0" transform="translate(292.62 118.92)"><tspan x="0" y="0">206</tspan></text>
  <circle class="st1" cx="294.71" cy="124.11" r="2.88"/>
  <text class="st0" transform="translate(292.62 125.11)"><tspan x="0" y="0">207</tspan></text>
  <circle class="st1" cx="294.71" cy="130.3" r="2.88"/>
  <text class="st0" transform="translate(292.62 131.3)"><tspan x="0" y="0">208</tspan></text>
  <circle class="st1" cx="294.71" cy="136.49" r="2.88"/>
  <text class="st0" transform="translate(292.62 137.49)"><tspan x="0" y="0">209</tspan></text>
  <circle class="st1" cx="294.71" cy="142.68" r="2.88"/>
  <text class="st0" transform="translate(292.72 143.68)"><tspan x="0" y="0">211</tspan></text>
  <circle class="st1" cx="294.71" cy="148.87" r="2.88"/>
  <text class="st0" transform="translate(292.62 149.87)"><tspan x="0" y="0">212</tspan></text>
  <circle class="st1" cx="294.71" cy="155.06" r="2.88"/>
  <text class="st0" transform="translate(292.62 156.06)"><tspan x="0" y="0">213</tspan></text>
  <circle class="st1" cx="294.71" cy="161.26" r="2.88"/>
  <text class="st0" transform="translate(292.62 162.26)"><tspan x="0" y="0">214</tspan></text>
  <circle class="st1" cx="306.36" cy="167.45" r="2.88"/>
  <text class="st0" transform="translate(304.27 168.45)"><tspan x="0" y="0">106</tspan></text>
  <circle class="st1" cx="294.71" cy="76.41" r="2.88"/>
  <text class="st0" transform="translate(292.62 77.41)"><tspan x="0" y="0">200</tspan></text>
  <circle class="st1" cx="294.71" cy="82.6" r="2.88"/>
  <text class="st0" transform="translate(292.62 83.6)"><tspan x="0" y="0">201</tspan></text>
  <circle class="st1" cx="294.71" cy="88.79" r="2.88"/>
  <text class="st0" transform="translate(292.62 89.79)"><tspan x="0" y="0">202</tspan></text>
  <circle class="st1" cx="294.71" cy="94.98" r="2.88"/>
  <text class="st0" transform="translate(292.62 95.98)"><tspan x="0" y="0">203</tspan></text>
  <circle class="st1" cx="294.71" cy="101.17" r="2.88"/>
  <text class="st0" transform="translate(292.62 102.17)"><tspan x="0" y="0">204</tspan></text>
  <circle class="st1" cx="294.71" cy="107.37" r="2.88"/>
  <text class="st0" transform="translate(292.62 108.37)"><tspan x="0" y="0">205</tspan></text>
  <circle class="st1" cx="306.36" cy="76.41" r="2.88"/>
  <text class="st0" transform="translate(304.27 77.41)"><tspan x="0" y="0">121</tspan></text>
  <circle class="st1" cx="306.36" cy="82.6" r="2.88"/>
  <text class="st0" transform="translate(304.27 83.6)"><tspan x="0" y="0">120</tspan></text>
  <circle class="st1" cx="306.36" cy="88.79" r="2.88"/>
  <text class="st0" transform="translate(304.37 89.79)"><tspan x="0" y="0">119</tspan></text>
  <circle class="st1" cx="306.36" cy="94.98" r="2.88"/>
  <text class="st0" transform="translate(304.37 95.98)"><tspan x="0" y="0">118</tspan></text>
  <circle class="st1" cx="306.36" cy="101.17" r="2.88"/>
  <text class="st0" transform="translate(304.37 102.17)"><tspan x="0" y="0">117</tspan></text>
  <circle class="st1" cx="306.36" cy="107.37" r="2.88"/>
  <text class="st0" transform="translate(304.37 108.37)"><tspan x="0" y="0">116</tspan></text>
</svg>