<?xml version="1.0" encoding="UTF-8" standalone="no"?>
<!DOCTYPE svg PUBLIC "-//W3C//DTD SVG 1.1//EN" "http://www.w3.org/Graphics/SVG/1.1/DTD/svg11.dtd">
<svg xmlns="http://www.w3.org/2000/svg" xmlns:xlink="http://www.w3.org/1999/xlink" xml:space="preserve" font-family="monospace" font-size="24" fill="rgb(255,255,255)" stroke="rgb(0,0,0)" viewBox="0 0 790 905">
<g transform="scale(2.89377)">
<g font-family="monospace" font-size="19">
<line style="fill:none;stroke-width:1" stroke="rgb(0,0,0)" x1="40" y1="74" x2="202" y2="74"/>
<text x="207" y="81" fill="rgb(0,0,0)" stroke="rgb(0,0,0)">1</text>
<line style="fill:none;stroke-width:1" stroke="rgb(0,0,0)" x1="40" y1="65" x2="40" y2="74"/>
<text x="33" y="60" fill="rgb(0,0,0)" stroke="rgb(0,0,0)">1</text>
<line style="fill:none;stroke-width:1" stroke="rgb(0,0,0)" x1="76" y1="110" x2="202" y2="110"/>
<text x="207" y="117" fill="rgb(0,0,0)" stroke="rgb(0,0,0)">10</text>
<line style="fill:none;stroke-width:1" stroke="rgb(0,0,0)" x1="76" y1="65" x2="76" y2="110"/>
<text x="61" y="60" fill="rgb(0,0,0)" stroke="rgb(0,0,0)">10</text>
<line style="fill:none;stroke-width:1" stroke="rgb(0,0,0)" x1="116" y1="150" x2="202" y2="150"/>
<text x="207" y="157" fill="rgb(0,0,0)" stroke="rgb(0,0,0)">20</text>
<line style="fill:none;stroke-width:1" stroke="rgb(0,0,0)" x1="116" y1="65" x2="116" y2="150"/>
<text x="101" y="60" fill="rgb(0,0,0)" stroke="rgb(0,0,0)">20</text>
<line style="fill:none;stroke-width:1" stroke="rgb(0,0,0)" x1="156" y1="190" x2="202" y2="190"/>
<line style="fill:none;stroke-width:1" stroke="rgb(0,0,0)" x1="156" y1="65" x2="156" y2="190"/>
<line style="fill:none;stroke-width:1" stroke="rgb(0,0,0)" x1="192" y1="226" x2="202" y2="226"/>
<text x="207" y="233" fill="rgb(0,0,0)" stroke="rgb(0,0,0)">39</text>
<line style="fill:none;stroke-width:1" stroke="rgb(0,0,0)" x1="192" y1="65" x2="192" y2="226"/>
<text x="177" y="60" fill="rgb(0,0,0)" stroke="rgb(0,0,0)">39</text>
<line style="fill:none;stroke-width:1" stroke="rgb(0,0,0)" x1="40" y1="74" x2="192" y2="226"/>
</g>
<rect x="87" y="73" width="2" height="2" fill="rgb(0,0,255)" stroke="rgb(0,0,255)"/>
<rect x="163" y="73" width="2" height="2" fill="rgb(0,0,255)" stroke="rgb(0,0,255)"/>
<rect x="83" y="77" width="2" height="2" fill="rgb(0,0,255)" stroke="rgb(0,0,255)"/>
<rect x="111" y="77" width="2" height="2" fill="rgb(128,128,0)" stroke="rgb(128,128,0)"/>
<rect x="159" y="77" width="2" height="2" fill="rgb(0,0,255)" stroke="rgb(0,0,255)"/>
<rect x="83" y="81" width="2" height="2" fill="rgb(0,128,128)" stroke="rgb(0,128,128)"/>
<rect x="107" y="81" width="2" height="2" fill="rgb(128,128,0)" stroke="rgb(128,128,0)"/>
<rect x="111" y="81" width="2" height="2" fill="rgb(0,255,0)" stroke="rgb(0,255,0)"/>
<rect x="143" y="81" width="2" height="2" fill="rgb(0,0,255)" stroke="rgb(0,0,255)"/>
<rect x="151" y="81" width="2" height="2" fill="rgb(0,128,128)" stroke="rgb(0,128,128)"/>
<rect x="159" y="81" width="2" height="2" fill="rgb(0,128,128)" stroke="rgb(0,128,128)"/>
<rect x="79" y="85" width="2" height="2" fill="rgb(0,128,128)" stroke="rgb(0,128,128)"/>
<rect x="83" y="85" width="2" height="2" fill="rgb(0,0,255)" stroke="rgb(0,0,255)"/>
<rect x="103" y="85" width="2" height="2" fill="rgb(128,128,0)" stroke="rgb(128,128,0)"/>
<rect x="107" y="85" width="2" height="2" fill="rgb(0,128,128)" stroke="rgb(0,128,128)"/>
<rect x="111" y="85" width="2" height="2" fill="rgb(0,0,255)" stroke="rgb(0,0,255)"/>
<rect x="115" y="85" width="2" height="2" fill="rgb(0,128,128)" stroke="rgb(0,128,128)"/>
<rect x="139" y="85" width="2" height="2" fill="rgb(0,0,255)" stroke="rgb(0,0,255)"/>
<rect x="143" y="85" width="2" height="2" fill="rgb(0,128,128)" stroke="rgb(0,128,128)"/>
<rect x="147" y="85" width="2" height="2" fill="rgb(0,128,128)" stroke="rgb(0,128,128)"/>
<rect x="151" y="85" width="2" height="2" fill="rgb(0,0,255)" stroke="rgb(0,0,255)"/>
<rect x="155" y="85" width="2" height="2" fill="rgb(0,128,128)" stroke="rgb(0,128,128)"/>
<rect x="159" y="85" width="2" height="2" fill="rgb(0,128,128)" stroke="rgb(0,128,128)"/>
<rect x="171" y="85" width="2" height="2" fill="rgb(255,0,0)" stroke="rgb(255,0,0)"/>
<rect x="187" y="85" width="2" height="2" fill="rgb(0,255,0)" stroke="rgb(0,255,0)"/>
<rect x="191" y="85" width="2" height="2" fill="rgb(0,255,0)" stroke="rgb(0,255,0)"/>
<rect x="75" y="89" width="2" height="2" fill="rgb(0,128,128)" stroke="rgb(0,128,128)"/>
<rect x="79" y="89" width="2" height="2" fill="rgb(0,128,128)" stroke="rgb(0,128,128)"/>
<rect x="99" y="89" width="2" height="2" fill="rgb(128,128,0)" stroke="rgb(128,128,0)"/>
<rect x="103" y="89" width="2" height="2" fill="rgb(0,128,128)" stroke="rgb(0,128,128)"/>
<rect x="107" y="89" width="2" height="2" fill="rgb(0,0,255)" stroke="rgb(0,0,255)"/>
<rect x="111" y="89" width="2" height="2" fill="rgb(0,128,128)" stroke="rgb(0,128,128)"/>
<rect x="139" y="89" width="2" height="2" fill="rgb(0,128,128)" stroke="rgb(0,128,128)"/>
<rect x="143" y="89" width="2" height="2" fill="rgb(0,0,255)" stroke="rgb(0,0,255)"/>
<rect x="147" y="89" width="2" height="2" fill="rgb(0,128,128)" stroke="rgb(0,128,128)"/>
<rect x="151" y="89" width="2" height="2" fill="rgb(0,128,128)" stroke="rgb(0,128,128)"/>
<rect x="155" y="89" width="2" height="2" fill="rgb(0,128,128)" stroke="rgb(0,128,128)"/>
<rect x="167" y="89" width="2" height="2" fill="rgb(255,0,0)" stroke="rgb(255,0,0)"/>
<rect x="183" y="89" width="2" height="2" fill="rgb(0,128,128)" stroke="rgb(0,128,128)"/>
<rect x="187" y="89" width="2" height="2" fill="rgb(0,255,0)" stroke="rgb(0,255,0)"/>
<rect x="87" y="93" width="2" height="2" fill="rgb(0,128,128)" stroke="rgb(0,128,128)"/>
<rect x="95" y="93" width="2" height="2" fill="rgb(128,128,0)" stroke="rgb(128,128,0)"/>
<rect x="135" y="93" width="2" height="2" fill="rgb(0,128,128)" stroke="rgb(0,128,128)"/>
<rect x="163" y="93" width="2" height="2" fill="rgb(255,0,0)" stroke="rgb(255,0,0)"/>
<rect x="83" y="97" width="2" height="2" fill="rgb(0,255,0)" stroke="rgb(0,255,0)"/>
<rect x="107" y="97" width="2" height="2" fill="rgb(0,128,128)" stroke="rgb(0,128,128)"/>
<rect x="111" y="97" width="2" height="2" fill="rgb(0,0,255)" stroke="rgb(0,0,255)"/>
<rect x="143" y="97" width="2" height="2" fill="rgb(0,128,128)" stroke="rgb(0,128,128)"/>
<rect x="151" y="97" width="2" height="2" fill="rgb(0,255,0)" stroke="rgb(0,255,0)"/>
<rect x="159" y="97" width="2" height="2" fill="rgb(255,0,0)" stroke="rgb(255,0,0)"/>
<rect x="103" y="101" width="2" height="2" fill="rgb(0,128,128)" stroke="rgb(0,128,128)"/>
<rect x="107" y="101" width="2" height="2" fill="rgb(0,0,255)" stroke="rgb(0,0,255)"/>
<rect x="111" y="101" width="2" height="2" fill="rgb(0,0,255)" stroke="rgb(0,0,255)"/>
<rect x="115" y="101" width="2" height="2" fill="rgb(0,128,128)" stroke="rgb(0,128,128)"/>
<rect x="139" y="101" width="2" height="2" fill="rgb(0,255,0)" stroke="rgb(0,255,0)"/>
<rect x="147" y="101" width="2" height="2" fill="rgb(0,255,0)" stroke="rgb(0,255,0)"/>
<rect x="155" y="101" width="2" height="2" fill="rgb(255,0,0)" stroke="rgb(255,0,0)"/>
<rect x="187" y="101" width="2" height="2" fill="rgb(0,128,128)" stroke="rgb(0,128,128)"/>
<rect x="107" y="105" width="2" height="2" fill="rgb(0,128,128)" stroke="rgb(0,128,128)"/>
<rect x="111" y="105" width="2" height="2" fill="rgb(0,128,128)" stroke="rgb(0,128,128)"/>
<rect x="143" y="105" width="2" height="2" fill="rgb(0,255,0)" stroke="rgb(0,255,0)"/>
<rect x="151" y="105" width="2" height="2" fill="rgb(255,0,0)" stroke="rgb(255,0,0)"/>
<rect x="183" y="105" width="2" height="2" fill="rgb(0,128,128)" stroke="rgb(0,128,128)"/>
<rect x="123" y="109" width="2" height="2" fill="rgb(0,255,0)" stroke="rgb(0,255,0)"/>
<rect x="127" y="109" width="2" height="2" fill="rgb(128,128,0)" stroke="rgb(128,128,0)"/>
<rect x="131" y="109" width="2" height="2" fill="rgb(128,128,0)" stroke="rgb(128,128,0)"/>
<rect x="179" y="109" width="2" height="2" fill="rgb(0,128,128)" stroke="rgb(0,128,128)"/>
<rect x="119" y="113" width="2" height="2" fill="rgb(0,255,0)" stroke="rgb(0,255,0)"/>
<rect x="123" y="113" width="2" height="2" fill="rgb(128,128,0)" stroke="rgb(128,128,0)"/>
<rect x="127" y="113" width="2" height="2" fill="rgb(128,128,0)" stroke="rgb(128,128,0)"/>
<rect x="135" y="113" width="2" height="2" fill="rgb(128,128,0)" stroke="rgb(128,128,0)"/>
<rect x="119" y="117" width="2" height="2" fill="rgb(128,128,0)" stroke="rgb(128,128,0)"/>
<rect x="123" y="117" width="2" height="2" fill="rgb(128,128,0)" stroke="rgb(128,128,0)"/>
<rect x="131" y="117" width="2" height="2" fill="rgb(128,128,0)" stroke="rgb(128,128,0)"/>
<rect x="163" y="117" width="2" height="2" fill="rgb(0,0,255)" stroke="rgb(0,0,255)"/>
<rect x="175" y="117" width="2" height="2" fill="rgb(0,128,128)" stroke="rgb(0,128,128)"/>
<rect x="111" y="121" width="2" height="2" fill="rgb(0,255,0)" stroke="rgb(0,255,0)"/>
<rect x="115" y="121" width="2" height="2" fill="rgb(128,128,0)" stroke="rgb(128,128,0)"/>
<rect x="147" y="121" width="2" height="2" fill="rgb(255,0,0)" stroke="rgb(255,0,0)"/>
<rect x="155" y="121" width="2" height="2" fill="rgb(0,255,0)" stroke="rgb(0,255,0)"/>
<rect x="159" y="121" width="2" height="2" fill="rgb(0,0,255)" stroke="rgb(0,0,255)"/>
<rect x="171" y="121" width="2" height="2" fill="rgb(0,128,128)" stroke="rgb(0,128,128)"/>
<rect x="187" y="121" width="2" height="2" fill="rgb(0,128,128)" stroke="rgb(0,128,128)"/>
<rect x="107" y="125" width="2" height="2" fill="rgb(0,255,0)" stroke="rgb(0,255,0)"/>
<rect x="111" y="125" width="2" height="2" fill="rgb(128,128,0)" stroke="rgb(128,128,0)"/>
<rect x="143" y="125" width="2" height="2" fill="rgb(255,0,0)" stroke="rgb(255,0,0)"/>
<rect x="151" y="125" width="2" height="2" fill="rgb(0,255,0)" stroke="rgb(0,255,0)"/>
<rect x="159" y="125" width="2" height="2" fill="rgb(0,0,255)" stroke="rgb(0,0,255)"/>
<rect x="183" y="125" width="2" height="2" fill="rgb(0,128,128)" stroke="rgb(0,128,128)"/>
<rect x="139" y="129" width="2" height="2" fill="rgb(255,0,0)" stroke="rgb(255,0,0)"/>
<rect x="147" y="129" width="2" height="2" fill="rgb(0,255,0)" stroke="rgb(0,255,0)"/>
<rect x="155" y="129" width="2" height="2" fill="rgb(0,0,255)" stroke="rgb(0,0,255)"/>
<rect x="167" y="129" width="2" height="2" fill="rgb(0,128,128)" stroke="rgb(0,128,128)"/>
<rect x="123" y="133" width="2" height="2" fill="rgb(128,128,0)" stroke="rgb(128,128,0)"/>
<rect x="127" y="133" width="2" height="2" fill="rgb(255,0,0)" stroke="rgb(255,0,0)"/>
<rect x="135" y="133" width="2" height="2" fill="rgb(255,0,0)" stroke="rgb(255,0,0)"/>
<rect x="163" y="133" width="2" height="2" fill="rgb(0,128,128)" stroke="rgb(0,128,128)"/>
<rect x="119" y="137" width="2" height="2" fill="rgb(128,128,0)" stroke="rgb(128,128,0)"/>
<rect x="123" y="137" width="2" height="2" fill="rgb(255,0,0)" stroke="rgb(255,0,0)"/>
<rect x="127" y="137" width="2" height="2" fill="rgb(255,0,0)" stroke="rgb(255,0,0)"/>
<rect x="135" y="137" width="2" height="2" fill="rgb(255,0,0)" stroke="rgb(255,0,0)"/>
<rect x="123" y="141" width="2" height="2" fill="rgb(255,0,0)" stroke="rgb(255,0,0)"/>
<rect x="131" y="141" width="2" height="2" fill="rgb(255,0,0)" stroke="rgb(255,0,0)"/>
<rect x="135" y="141" width="2" height="2" fill="rgb(0,255,0)" stroke="rgb(0,255,0)"/>
<rect x="179" y="141" width="2" height="2" fill="rgb(0,128,128)" stroke="rgb(0,128,128)"/>
<rect x="127" y="145" width="2" height="2" fill="rgb(255,0,0)" stroke="rgb(255,0,0)"/>
<rect x="131" y="145" width="2" height="2" fill="rgb(128,128,0)" stroke="rgb(128,128,0)"/>
<rect x="175" y="145" width="2" height="2" fill="rgb(0,255,0)" stroke="rgb(0,255,0)"/>
<rect x="163" y="149" width="2" height="2" fill="rgb(128,128,0)" stroke="rgb(128,128,0)"/>
<rect x="143" y="153" width="2" height="2" fill="rgb(0,128,128)" stroke="rgb(0,128,128)"/>
<rect x="147" y="153" width="2" height="2" fill="rgb(0,255,0)" stroke="rgb(0,255,0)"/>
<rect x="151" y="153" width="2" height="2" fill="rgb(0,255,0)" stroke="rgb(0,255,0)"/>
<rect x="155" y="153" width="2" height="2" fill="rgb(0,255,0)" stroke="rgb(0,255,0)"/>
<rect x="159" y="153" width="2" height="2" fill="rgb(128,128,0)" stroke="rgb(128,128,0)"/>
<rect x="171" y="153" width="2" height="2" fill="rgb(128,128,0)" stroke="rgb(128,128,0)"/>
<rect x="187" y="153" width="2" height="2" fill="rgb(0,255,0)" stroke="rgb(0,255,0)"/>
<rect x="191" y="153" width="2" height="2" fill="rgb(128,128,0)" stroke="rgb(128,128,0)"/>
<rect x="139" y="157" width="2" height="2" fill="rgb(0,128,128)" stroke="rgb(0,128,128)"/>
<rect x="143" y="157" width="2" height="2" fill="rgb(0,128,128)" stroke="rgb(0,128,128)"/>
<rect x="147" y="157" width="2" height="2" fill="rgb(0,255,0)" stroke="rgb(0,255,0)"/>
<rect x="151" y="157" width="2" height="2" fill="rgb(0,255,0)" stroke="rgb(0,255,0)"/>
<rect x="155" y="157" width="2" height="2" fill="rgb(128,128,0)" stroke="rgb(128,128,0)"/>
<rect x="159" y="157" width="2" height="2" fill="rgb(0,255,0)" stroke="rgb(0,255,0)"/>
<rect x="167" y="157" width="2" height="2" fill="rgb(128,128,0)" stroke="rgb(128,128,0)"/>
<rect x="171" y="157" width="2" height="2" fill="rgb(0,255,0)" stroke="rgb(0,255,0)"/>
<rect x="183" y="157" width="2" height="2" fill="rgb(0,255,0)" stroke="rgb(0,255,0)"/>
<rect x="187" y="157" width="2" height="2" fill="rgb(128,128,0)" stroke="rgb(128,128,0)"/>
<rect x="191" y="157" width="2" height="2" fill="rgb(0,255,0)" stroke="rgb(0,255,0)"/>
<rect x="143" y="161" width="2" height="2" fill="rgb(0,255,0)" stroke="rgb(0,255,0)"/>
<rect x="147" y="161" width="2" height="2" fill="rgb(0,255,0)" stroke="rgb(0,255,0)"/>
<rect x="151" y="161" width="2" height="2" fill="rgb(128,128,0)" stroke="rgb(128,128,0)"/>
<rect x="155" y="161" width="2" height="2" fill="rgb(0,255,0)" stroke="rgb(0,255,0)"/>
<rect x="167" y="161" width="2" height="2" fill="rgb(0,255,0)" stroke="rgb(0,255,0)"/>
<rect x="183" y="161" width="2" height="2" fill="rgb(128,128,0)" stroke="rgb(128,128,0)"/>
<rect x="187" y="161" width="2" height="2" fill="rgb(0,255,0)" stroke="rgb(0,255,0)"/>
<rect x="151" y="165" width="2" height="2" fill="rgb(0,255,0)" stroke="rgb(0,255,0)"/>
<rect x="159" y="165" width="2" height="2" fill="rgb(128,128,0)" stroke="rgb(128,128,0)"/>
<rect x="183" y="165" width="2" height="2" fill="rgb(0,255,0)" stroke="rgb(0,255,0)"/>
<rect x="155" y="169" width="2" height="2" fill="rgb(128,128,0)" stroke="rgb(128,128,0)"/>
<rect x="167" y="169" width="2" height="2" fill="rgb(128,128,0)" stroke="rgb(128,128,0)"/>
<rect x="163" y="173" width="2" height="2" fill="rgb(128,128,0)" stroke="rgb(128,128,0)"/>
</g>
<g font-family="monospace" font-size="19">
<text x="36" y="791" fill="rgb(255,0,0)" stroke="rgb(255,0,0)">0.000176541 &#60;= -log10(Probability) &#60;  2.54465</text>
<text x="36" y="810" fill="rgb(128,128,0)" stroke="rgb(128,128,0)">2.54465 &#60;= -log10(Probability) &#60;  5.08912</text>
<text x="36" y="829" fill="rgb(0,255,0)" stroke="rgb(0,255,0)">5.08912 &#60;= -log10(Probability) &#60;  7.63359</text>
<text x="36" y="848" fill="rgb(0,128,128)" stroke="rgb(0,128,128)">7.63359 &#60;= -log10(Probability) &#60;  10.1781</text>
<text x="36" y="867" fill="rgb(0,0,255)" stroke="rgb(0,0,255)">10.1781 &#60;= -log10(Probability) &#60;= 12.7225</text>
<text x="36" y="888" fill="rgb(0,0,0)" stroke="rgb(0,0,0)">temp_partition_output.pfs</text>
</g>
</svg>
