<?xml version="1.0" encoding="UTF-8" standalone="no"?>
<!DOCTYPE svg PUBLIC "-//W3C//DTD SVG 1.1//EN" "http://www.w3.org/Graphics/SVG/1.1/DTD/svg11.dtd">
<svg xmlns="http://www.w3.org/2000/svg" xmlns:xlink="http://www.w3.org/1999/xlink" xml:space="preserve" font-family="monospace" font-size="24" fill="rgb(255,255,255)" stroke="rgb(0,0,0)" viewBox="0 0 790 905">
<g transform="scale(2.81139)">
<g font-family="monospace" font-size="19">
<line style="fill:none;stroke-width:1" stroke="rgb(0,0,0)" x1="40" y1="74" x2="210" y2="74"/>
<text x="215" y="81" fill="rgb(0,0,0)" stroke="rgb(0,0,0)">1</text>
<line style="fill:none;stroke-width:1" stroke="rgb(0,0,0)" x1="40" y1="65" x2="40" y2="74"/>
<text x="33" y="60" fill="rgb(0,0,0)" stroke="rgb(0,0,0)">1</text>
<line style="fill:none;stroke-width:1" stroke="rgb(0,0,0)" x1="76" y1="110" x2="210" y2="110"/>
<text x="215" y="117" fill="rgb(0,0,0)" stroke="rgb(0,0,0)">10</text>
<line style="fill:none;stroke-width:1" stroke="rgb(0,0,0)" x1="76" y1="65" x2="76" y2="110"/>
<text x="61" y="60" fill="rgb(0,0,0)" stroke="rgb(0,0,0)">10</text>
<line style="fill:none;stroke-width:1" stroke="rgb(0,0,0)" x1="116" y1="150" x2="210" y2="150"/>
<text x="215" y="157" fill="rgb(0,0,0)" stroke="rgb(0,0,0)">20</text>
<line style="fill:none;stroke-width:1" stroke="rgb(0,0,0)" x1="116" y1="65" x2="116" y2="150"/>
<text x="101" y="60" fill="rgb(0,0,0)" stroke="rgb(0,0,0)">20</text>
<line style="fill:none;stroke-width:1" stroke="rgb(0,0,0)" x1="156" y1="190" x2="210" y2="190"/>
<text x="215" y="197" fill="rgb(0,0,0)" stroke="rgb(0,0,0)">30</text>
<line style="fill:none;stroke-width:1" stroke="rgb(0,0,0)" x1="156" y1="65" x2="156" y2="190"/>
<text x="141" y="60" fill="rgb(0,0,0)" stroke="rgb(0,0,0)">30</text>
<line style="fill:none;stroke-width:1" stroke="rgb(0,0,0)" x1="196" y1="230" x2="210" y2="230"/>
<line style="fill:none;stroke-width:1" stroke="rgb(0,0,0)" x1="196" y1="65" x2="196" y2="230"/>
<line style="fill:none;stroke-width:1" stroke="rgb(0,0,0)" x1="200" y1="234" x2="210" y2="234"/>
<text x="215" y="241" fill="rgb(0,0,0)" stroke="rgb(0,0,0)">41</text>
<line style="fill:none;stroke-width:1" stroke="rgb(0,0,0)" x1="200" y1="65" x2="200" y2="234"/>
<text x="185" y="60" fill="rgb(0,0,0)" stroke="rgb(0,0,0)">41</text>
<line style="fill:none;stroke-width:1" stroke="rgb(0,0,0)" x1="40" y1="74" x2="200" y2="234"/>
</g>
<rect x="75" y="73" width="2" height="2" fill="rgb(0,255,0)" stroke="rgb(0,255,0)"/>
<rect x="79" y="73" width="2" height="2" fill="rgb(0,255,0)" stroke="rgb(0,255,0)"/>
<rect x="83" y="73" width="2" height="2" fill="rgb(0,128,128)" stroke="rgb(0,128,128)"/>
<rect x="87" y="73" width="2" height="2" fill="rgb(0,0,255)" stroke="rgb(0,0,255)"/>
<rect x="131" y="73" width="2" height="2" fill="rgb(0,0,255)" stroke="rgb(0,0,255)"/>
<rect x="167" y="73" width="2" height="2" fill="rgb(0,255,0)" stroke="rgb(0,255,0)"/>
<rect x="71" y="77" width="2" height="2" fill="rgb(0,255,0)" stroke="rgb(0,255,0)"/>
<rect x="75" y="77" width="2" height="2" fill="rgb(0,255,0)" stroke="rgb(0,255,0)"/>
<rect x="79" y="77" width="2" height="2" fill="rgb(0,128,128)" stroke="rgb(0,128,128)"/>
<rect x="83" y="77" width="2" height="2" fill="rgb(0,128,128)" stroke="rgb(0,128,128)"/>
<rect x="87" y="77" width="2" height="2" fill="rgb(0,0,255)" stroke="rgb(0,0,255)"/>
<rect x="127" y="77" width="2" height="2" fill="rgb(0,0,255)" stroke="rgb(0,0,255)"/>
<rect x="131" y="77" width="2" height="2" fill="rgb(0,128,128)" stroke="rgb(0,128,128)"/>
<rect x="135" y="77" width="2" height="2" fill="rgb(0,128,128)" stroke="rgb(0,128,128)"/>
<rect x="163" y="77" width="2" height="2" fill="rgb(0,255,0)" stroke="rgb(0,255,0)"/>
<rect x="167" y="77" width="2" height="2" fill="rgb(0,255,0)" stroke="rgb(0,255,0)"/>
<rect x="71" y="81" width="2" height="2" fill="rgb(0,255,0)" stroke="rgb(0,255,0)"/>
<rect x="75" y="81" width="2" height="2" fill="rgb(0,128,128)" stroke="rgb(0,128,128)"/>
<rect x="79" y="81" width="2" height="2" fill="rgb(0,128,128)" stroke="rgb(0,128,128)"/>
<rect x="83" y="81" width="2" height="2" fill="rgb(0,128,128)" stroke="rgb(0,128,128)"/>
<rect x="103" y="81" width="2" height="2" fill="rgb(0,128,128)" stroke="rgb(0,128,128)"/>
<rect x="115" y="81" width="2" height="2" fill="rgb(0,0,255)" stroke="rgb(0,0,255)"/>
<rect x="127" y="81" width="2" height="2" fill="rgb(0,128,128)" stroke="rgb(0,128,128)"/>
<rect x="131" y="81" width="2" height="2" fill="rgb(0,128,128)" stroke="rgb(0,128,128)"/>
<rect x="163" y="81" width="2" height="2" fill="rgb(0,255,0)" stroke="rgb(0,255,0)"/>
<rect x="179" y="81" width="2" height="2" fill="rgb(255,0,0)" stroke="rgb(255,0,0)"/>
<rect x="67" y="85" width="2" height="2" fill="rgb(0,255,0)" stroke="rgb(0,255,0)"/>
<rect x="95" y="85" width="2" height="2" fill="rgb(0,128,128)" stroke="rgb(0,128,128)"/>
<rect x="99" y="85" width="2" height="2" fill="rgb(0,128,128)" stroke="rgb(0,128,128)"/>
<rect x="111" y="85" width="2" height="2" fill="rgb(0,0,255)" stroke="rgb(0,0,255)"/>
<rect x="123" y="85" width="2" height="2" fill="rgb(0,128,128)" stroke="rgb(0,128,128)"/>
<rect x="143" y="85" width="2" height="2" fill="rgb(0,128,128)" stroke="rgb(0,128,128)"/>
<rect x="147" y="85" width="2" height="2" fill="rgb(0,0,255)" stroke="rgb(0,0,255)"/>
<rect x="151" y="85" width="2" height="2" fill="rgb(0,128,128)" stroke="rgb(0,128,128)"/>
<rect x="155" y="85" width="2" height="2" fill="rgb(0,128,128)" stroke="rgb(0,128,128)"/>
<rect x="159" y="85" width="2" height="2" fill="rgb(0,255,0)" stroke="rgb(0,255,0)"/>
<rect x="175" y="85" width="2" height="2" fill="rgb(255,0,0)" stroke="rgb(255,0,0)"/>
<rect x="187" y="85" width="2" height="2" fill="rgb(128,128,0)" stroke="rgb(128,128,0)"/>
<rect x="191" y="85" width="2" height="2" fill="rgb(128,128,0)" stroke="rgb(128,128,0)"/>
<rect x="195" y="85" width="2" height="2" fill="rgb(0,255,0)" stroke="rgb(0,255,0)"/>
<rect x="199" y="85" width="2" height="2" fill="rgb(0,255,0)" stroke="rgb(0,255,0)"/>
<rect x="91" y="89" width="2" height="2" fill="rgb(0,128,128)" stroke="rgb(0,128,128)"/>
<rect x="95" y="89" width="2" height="2" fill="rgb(0,128,128)" stroke="rgb(0,128,128)"/>
<rect x="107" y="89" width="2" height="2" fill="rgb(0,0,255)" stroke="rgb(0,0,255)"/>
<rect x="119" y="89" width="2" height="2" fill="rgb(0,128,128)" stroke="rgb(0,128,128)"/>
<rect x="139" y="89" width="2" height="2" fill="rgb(0,128,128)" stroke="rgb(0,128,128)"/>
<rect x="143" y="89" width="2" height="2" fill="rgb(0,0,255)" stroke="rgb(0,0,255)"/>
<rect x="147" y="89" width="2" height="2" fill="rgb(0,128,128)" stroke="rgb(0,128,128)"/>
<rect x="151" y="89" width="2" height="2" fill="rgb(0,128,128)" stroke="rgb(0,128,128)"/>
<rect x="155" y="89" width="2" height="2" fill="rgb(0,255,0)" stroke="rgb(0,255,0)"/>
<rect x="171" y="89" width="2" height="2" fill="rgb(255,0,0)" stroke="rgb(255,0,0)"/>
<rect x="183" y="89" width="2" height="2" fill="rgb(128,128,0)" stroke="rgb(128,128,0)"/>
<rect x="187" y="89" width="2" height="2" fill="rgb(128,128,0)" stroke="rgb(128,128,0)"/>
<rect x="191" y="89" width="2" height="2" fill="rgb(0,255,0)" stroke="rgb(0,255,0)"/>
<rect x="195" y="89" width="2" height="2" fill="rgb(0,255,0)" stroke="rgb(0,255,0)"/>
<rect x="83" y="93" width="2" height="2" fill="rgb(0,0,255)" stroke="rgb(0,0,255)"/>
<rect x="87" y="93" width="2" height="2" fill="rgb(0,128,128)" stroke="rgb(0,128,128)"/>
<rect x="103" y="93" width="2" height="2" fill="rgb(0,0,255)" stroke="rgb(0,0,255)"/>
<rect x="115" y="93" width="2" height="2" fill="rgb(0,0,255)" stroke="rgb(0,0,255)"/>
<rect x="131" y="93" width="2" height="2" fill="rgb(0,0,255)" stroke="rgb(0,0,255)"/>
<rect x="135" y="93" width="2" height="2" fill="rgb(0,128,128)" stroke="rgb(0,128,128)"/>
<rect x="167" y="93" width="2" height="2" fill="rgb(255,0,0)" stroke="rgb(255,0,0)"/>
<rect x="179" y="93" width="2" height="2" fill="rgb(128,128,0)" stroke="rgb(128,128,0)"/>
<rect x="79" y="97" width="2" height="2" fill="rgb(0,128,128)" stroke="rgb(0,128,128)"/>
<rect x="83" y="97" width="2" height="2" fill="rgb(0,128,128)" stroke="rgb(0,128,128)"/>
<rect x="87" y="97" width="2" height="2" fill="rgb(0,128,128)" stroke="rgb(0,128,128)"/>
<rect x="127" y="97" width="2" height="2" fill="rgb(0,0,255)" stroke="rgb(0,0,255)"/>
<rect x="131" y="97" width="2" height="2" fill="rgb(0,128,128)" stroke="rgb(0,128,128)"/>
<rect x="163" y="97" width="2" height="2" fill="rgb(255,0,0)" stroke="rgb(255,0,0)"/>
<rect x="167" y="97" width="2" height="2" fill="rgb(128,128,0)" stroke="rgb(128,128,0)"/>
<rect x="83" y="101" width="2" height="2" fill="rgb(0,128,128)" stroke="rgb(0,128,128)"/>
<rect x="115" y="101" width="2" height="2" fill="rgb(0,128,128)" stroke="rgb(0,128,128)"/>
<rect x="127" y="101" width="2" height="2" fill="rgb(0,128,128)" stroke="rgb(0,128,128)"/>
<rect x="163" y="101" width="2" height="2" fill="rgb(128,128,0)" stroke="rgb(128,128,0)"/>
<rect x="111" y="105" width="2" height="2" fill="rgb(0,128,128)" stroke="rgb(0,128,128)"/>
<rect x="143" y="105" width="2" height="2" fill="rgb(0,128,128)" stroke="rgb(0,128,128)"/>
<rect x="147" y="105" width="2" height="2" fill="rgb(0,255,0)" stroke="rgb(0,255,0)"/>
<rect x="155" y="105" width="2" height="2" fill="rgb(255,0,0)" stroke="rgb(255,0,0)"/>
<rect x="159" y="105" width="2" height="2" fill="rgb(128,128,0)" stroke="rgb(128,128,0)"/>
<rect x="187" y="105" width="2" height="2" fill="rgb(0,128,128)" stroke="rgb(0,128,128)"/>
<rect x="199" y="105" width="2" height="2" fill="rgb(0,128,128)" stroke="rgb(0,128,128)"/>
<rect x="99" y="109" width="2" height="2" fill="rgb(0,0,255)" stroke="rgb(0,0,255)"/>
<rect x="107" y="109" width="2" height="2" fill="rgb(0,128,128)" stroke="rgb(0,128,128)"/>
<rect x="111" y="109" width="2" height="2" fill="rgb(0,128,128)" stroke="rgb(0,128,128)"/>
<rect x="123" y="109" width="2" height="2" fill="rgb(0,128,128)" stroke="rgb(0,128,128)"/>
<rect x="139" y="109" width="2" height="2" fill="rgb(0,128,128)" stroke="rgb(0,128,128)"/>
<rect x="143" y="109" width="2" height="2" fill="rgb(0,255,0)" stroke="rgb(0,255,0)"/>
<rect x="147" y="109" width="2" height="2" fill="rgb(0,255,0)" stroke="rgb(0,255,0)"/>
<rect x="151" y="109" width="2" height="2" fill="rgb(255,0,0)" stroke="rgb(255,0,0)"/>
<rect x="155" y="109" width="2" height="2" fill="rgb(128,128,0)" stroke="rgb(128,128,0)"/>
<rect x="159" y="109" width="2" height="2" fill="rgb(0,128,128)" stroke="rgb(0,128,128)"/>
<rect x="175" y="109" width="2" height="2" fill="rgb(0,0,255)" stroke="rgb(0,0,255)"/>
<rect x="183" y="109" width="2" height="2" fill="rgb(0,128,128)" stroke="rgb(0,128,128)"/>
<rect x="187" y="109" width="2" height="2" fill="rgb(0,0,255)" stroke="rgb(0,0,255)"/>
<rect x="191" y="109" width="2" height="2" fill="rgb(0,128,128)" stroke="rgb(0,128,128)"/>
<rect x="195" y="109" width="2" height="2" fill="rgb(0,128,128)" stroke="rgb(0,128,128)"/>
<rect x="199" y="109" width="2" height="2" fill="rgb(0,128,128)" stroke="rgb(0,128,128)"/>
<rect x="95" y="113" width="2" height="2" fill="rgb(0,0,255)" stroke="rgb(0,0,255)"/>
<rect x="107" y="113" width="2" height="2" fill="rgb(0,128,128)" stroke="rgb(0,128,128)"/>
<rect x="111" y="113" width="2" height="2" fill="rgb(0,128,128)" stroke="rgb(0,128,128)"/>
<rect x="119" y="113" width="2" height="2" fill="rgb(0,128,128)" stroke="rgb(0,128,128)"/>
<rect x="123" y="113" width="2" height="2" fill="rgb(0,128,128)" stroke="rgb(0,128,128)"/>
<rect x="139" y="113" width="2" height="2" fill="rgb(0,128,128)" stroke="rgb(0,128,128)"/>
<rect x="143" y="113" width="2" height="2" fill="rgb(0,255,0)" stroke="rgb(0,255,0)"/>
<rect x="147" y="113" width="2" height="2" fill="rgb(255,0,0)" stroke="rgb(255,0,0)"/>
<rect x="151" y="113" width="2" height="2" fill="rgb(128,128,0)" stroke="rgb(128,128,0)"/>
<rect x="155" y="113" width="2" height="2" fill="rgb(0,255,0)" stroke="rgb(0,255,0)"/>
<rect x="159" y="113" width="2" height="2" fill="rgb(0,128,128)" stroke="rgb(0,128,128)"/>
<rect x="171" y="113" width="2" height="2" fill="rgb(0,0,255)" stroke="rgb(0,0,255)"/>
<rect x="175" y="113" width="2" height="2" fill="rgb(0,0,255)" stroke="rgb(0,0,255)"/>
<rect x="183" y="113" width="2" height="2" fill="rgb(0,0,255)" stroke="rgb(0,0,255)"/>
<rect x="187" y="113" width="2" height="2" fill="rgb(0,128,128)" stroke="rgb(0,128,128)"/>
<rect x="191" y="113" width="2" height="2" fill="rgb(0,128,128)" stroke="rgb(0,128,128)"/>
<rect x="195" y="113" width="2" height="2" fill="rgb(0,128,128)" stroke="rgb(0,128,128)"/>
<rect x="199" y="113" width="2" height="2" fill="rgb(0,128,128)" stroke="rgb(0,128,128)"/>
<rect x="107" y="117" width="2" height="2" fill="rgb(0,128,128)" stroke="rgb(0,128,128)"/>
<rect x="111" y="117" width="2" height="2" fill="rgb(0,128,128)" stroke="rgb(0,128,128)"/>
<rect x="119" y="117" width="2" height="2" fill="rgb(0,128,128)" stroke="rgb(0,128,128)"/>
<rect x="123" y="117" width="2" height="2" fill="rgb(0,128,128)" stroke="rgb(0,128,128)"/>
<rect x="139" y="117" width="2" height="2" fill="rgb(0,255,0)" stroke="rgb(0,255,0)"/>
<rect x="143" y="117" width="2" height="2" fill="rgb(255,0,0)" stroke="rgb(255,0,0)"/>
<rect x="147" y="117" width="2" height="2" fill="rgb(128,128,0)" stroke="rgb(128,128,0)"/>
<rect x="151" y="117" width="2" height="2" fill="rgb(0,255,0)" stroke="rgb(0,255,0)"/>
<rect x="155" y="117" width="2" height="2" fill="rgb(0,128,128)" stroke="rgb(0,128,128)"/>
<rect x="159" y="117" width="2" height="2" fill="rgb(0,128,128)" stroke="rgb(0,128,128)"/>
<rect x="171" y="117" width="2" height="2" fill="rgb(0,128,128)" stroke="rgb(0,128,128)"/>
<rect x="175" y="117" width="2" height="2" fill="rgb(0,128,128)" stroke="rgb(0,128,128)"/>
<rect x="183" y="117" width="2" height="2" fill="rgb(0,128,128)" stroke="rgb(0,128,128)"/>
<rect x="187" y="117" width="2" height="2" fill="rgb(0,128,128)" stroke="rgb(0,128,128)"/>
<rect x="191" y="117" width="2" height="2" fill="rgb(0,128,128)" stroke="rgb(0,128,128)"/>
<rect x="195" y="117" width="2" height="2" fill="rgb(0,128,128)" stroke="rgb(0,128,128)"/>
<rect x="199" y="117" width="2" height="2" fill="rgb(0,128,128)" stroke="rgb(0,128,128)"/>
<rect x="107" y="121" width="2" height="2" fill="rgb(0,128,128)" stroke="rgb(0,128,128)"/>
<rect x="119" y="121" width="2" height="2" fill="rgb(0,128,128)" stroke="rgb(0,128,128)"/>
<rect x="139" y="121" width="2" height="2" fill="rgb(255,0,0)" stroke="rgb(255,0,0)"/>
<rect x="143" y="121" width="2" height="2" fill="rgb(128,128,0)" stroke="rgb(128,128,0)"/>
<rect x="147" y="121" width="2" height="2" fill="rgb(0,255,0)" stroke="rgb(0,255,0)"/>
<rect x="151" y="121" width="2" height="2" fill="rgb(0,128,128)" stroke="rgb(0,128,128)"/>
<rect x="155" y="121" width="2" height="2" fill="rgb(0,0,255)" stroke="rgb(0,0,255)"/>
<rect x="171" y="121" width="2" height="2" fill="rgb(0,128,128)" stroke="rgb(0,128,128)"/>
<rect x="183" y="121" width="2" height="2" fill="rgb(0,128,128)" stroke="rgb(0,128,128)"/>
<rect x="187" y="121" width="2" height="2" fill="rgb(0,128,128)" stroke="rgb(0,128,128)"/>
<rect x="191" y="121" width="2" height="2" fill="rgb(0,128,128)" stroke="rgb(0,128,128)"/>
<rect x="195" y="121" width="2" height="2" fill="rgb(0,128,128)" stroke="rgb(0,128,128)"/>
<rect x="115" y="125" width="2" height="2" fill="rgb(0,128,128)" stroke="rgb(0,128,128)"/>
<rect x="131" y="125" width="2" height="2" fill="rgb(0,255,0)" stroke="rgb(0,255,0)"/>
<rect x="135" y="125" width="2" height="2" fill="rgb(255,0,0)" stroke="rgb(255,0,0)"/>
<rect x="167" y="125" width="2" height="2" fill="rgb(0,128,128)" stroke="rgb(0,128,128)"/>
<rect x="179" y="125" width="2" height="2" fill="rgb(0,128,128)" stroke="rgb(0,128,128)"/>
<rect x="127" y="129" width="2" height="2" fill="rgb(128,128,0)" stroke="rgb(128,128,0)"/>
<rect x="131" y="129" width="2" height="2" fill="rgb(255,0,0)" stroke="rgb(255,0,0)"/>
<rect x="163" y="129" width="2" height="2" fill="rgb(0,128,128)" stroke="rgb(0,128,128)"/>
<rect x="167" y="129" width="2" height="2" fill="rgb(0,128,128)" stroke="rgb(0,128,128)"/>
<rect x="127" y="133" width="2" height="2" fill="rgb(255,0,0)" stroke="rgb(255,0,0)"/>
<rect x="163" y="133" width="2" height="2" fill="rgb(0,128,128)" stroke="rgb(0,128,128)"/>
<rect x="179" y="133" width="2" height="2" fill="rgb(0,128,128)" stroke="rgb(0,128,128)"/>
<rect x="123" y="137" width="2" height="2" fill="rgb(255,0,0)" stroke="rgb(255,0,0)"/>
<rect x="159" y="137" width="2" height="2" fill="rgb(0,128,128)" stroke="rgb(0,128,128)"/>
<rect x="171" y="137" width="2" height="2" fill="rgb(0,128,128)" stroke="rgb(0,128,128)"/>
<rect x="175" y="137" width="2" height="2" fill="rgb(0,128,128)" stroke="rgb(0,128,128)"/>
<rect x="183" y="137" width="2" height="2" fill="rgb(0,128,128)" stroke="rgb(0,128,128)"/>
<rect x="131" y="141" width="2" height="2" fill="rgb(0,255,0)" stroke="rgb(0,255,0)"/>
<rect x="167" y="141" width="2" height="2" fill="rgb(0,128,128)" stroke="rgb(0,128,128)"/>
<rect x="179" y="141" width="2" height="2" fill="rgb(0,128,128)" stroke="rgb(0,128,128)"/>
<rect x="127" y="145" width="2" height="2" fill="rgb(0,255,0)" stroke="rgb(0,255,0)"/>
<rect x="163" y="145" width="2" height="2" fill="rgb(0,128,128)" stroke="rgb(0,128,128)"/>
<rect x="179" y="145" width="2" height="2" fill="rgb(0,128,128)" stroke="rgb(0,128,128)"/>
<rect x="139" y="149" width="2" height="2" fill="rgb(0,128,128)" stroke="rgb(0,128,128)"/>
<rect x="159" y="149" width="2" height="2" fill="rgb(0,0,255)" stroke="rgb(0,0,255)"/>
<rect x="171" y="149" width="2" height="2" fill="rgb(0,128,128)" stroke="rgb(0,128,128)"/>
<rect x="175" y="149" width="2" height="2" fill="rgb(0,128,128)" stroke="rgb(0,128,128)"/>
<rect x="183" y="149" width="2" height="2" fill="rgb(0,0,255)" stroke="rgb(0,0,255)"/>
<rect x="135" y="153" width="2" height="2" fill="rgb(0,128,128)" stroke="rgb(0,128,128)"/>
<rect x="167" y="153" width="2" height="2" fill="rgb(0,128,128)" stroke="rgb(0,128,128)"/>
<rect x="179" y="153" width="2" height="2" fill="rgb(0,0,255)" stroke="rgb(0,0,255)"/>
<rect x="163" y="157" width="2" height="2" fill="rgb(0,128,128)" stroke="rgb(0,128,128)"/>
<rect x="179" y="157" width="2" height="2" fill="rgb(0,0,255)" stroke="rgb(0,0,255)"/>
<rect x="151" y="161" width="2" height="2" fill="rgb(0,0,255)" stroke="rgb(0,0,255)"/>
<rect x="155" y="161" width="2" height="2" fill="rgb(0,0,255)" stroke="rgb(0,0,255)"/>
<rect x="159" y="161" width="2" height="2" fill="rgb(0,128,128)" stroke="rgb(0,128,128)"/>
<rect x="175" y="161" width="2" height="2" fill="rgb(0,0,255)" stroke="rgb(0,0,255)"/>
<rect x="187" y="161" width="2" height="2" fill="rgb(0,0,255)" stroke="rgb(0,0,255)"/>
<rect x="191" y="161" width="2" height="2" fill="rgb(0,128,128)" stroke="rgb(0,128,128)"/>
<rect x="195" y="161" width="2" height="2" fill="rgb(0,128,128)" stroke="rgb(0,128,128)"/>
<rect x="199" y="161" width="2" height="2" fill="rgb(0,0,255)" stroke="rgb(0,0,255)"/>
<rect x="147" y="165" width="2" height="2" fill="rgb(0,0,255)" stroke="rgb(0,0,255)"/>
<rect x="151" y="165" width="2" height="2" fill="rgb(0,0,255)" stroke="rgb(0,0,255)"/>
<rect x="155" y="165" width="2" height="2" fill="rgb(0,128,128)" stroke="rgb(0,128,128)"/>
<rect x="159" y="165" width="2" height="2" fill="rgb(0,128,128)" stroke="rgb(0,128,128)"/>
<rect x="171" y="165" width="2" height="2" fill="rgb(0,0,255)" stroke="rgb(0,0,255)"/>
<rect x="183" y="165" width="2" height="2" fill="rgb(0,0,255)" stroke="rgb(0,0,255)"/>
<rect x="187" y="165" width="2" height="2" fill="rgb(0,128,128)" stroke="rgb(0,128,128)"/>
<rect x="191" y="165" width="2" height="2" fill="rgb(0,128,128)" stroke="rgb(0,128,128)"/>
<rect x="195" y="165" width="2" height="2" fill="rgb(0,0,255)" stroke="rgb(0,0,255)"/>
<rect x="155" y="169" width="2" height="2" fill="rgb(0,128,128)" stroke="rgb(0,128,128)"/>
<rect x="183" y="169" width="2" height="2" fill="rgb(0,128,128)" stroke="rgb(0,128,128)"/>
<rect x="187" y="169" width="2" height="2" fill="rgb(0,128,128)" stroke="rgb(0,128,128)"/>
<rect x="167" y="173" width="2" height="2" fill="rgb(0,0,255)" stroke="rgb(0,0,255)"/>
<rect x="179" y="173" width="2" height="2" fill="rgb(0,128,128)" stroke="rgb(0,128,128)"/>
<rect x="163" y="177" width="2" height="2" fill="rgb(0,128,128)" stroke="rgb(0,128,128)"/>
<rect x="167" y="177" width="2" height="2" fill="rgb(0,128,128)" stroke="rgb(0,128,128)"/>
<rect x="163" y="181" width="2" height="2" fill="rgb(0,128,128)" stroke="rgb(0,128,128)"/>
<rect x="187" y="197" width="2" height="2" fill="rgb(128,128,0)" stroke="rgb(128,128,0)"/>
<rect x="191" y="197" width="2" height="2" fill="rgb(128,128,0)" stroke="rgb(128,128,0)"/>
<rect x="195" y="197" width="2" height="2" fill="rgb(128,128,0)" stroke="rgb(128,128,0)"/>
<rect x="199" y="197" width="2" height="2" fill="rgb(128,128,0)" stroke="rgb(128,128,0)"/>
<rect x="183" y="201" width="2" height="2" fill="rgb(128,128,0)" stroke="rgb(128,128,0)"/>
<rect x="187" y="201" width="2" height="2" fill="rgb(128,128,0)" stroke="rgb(128,128,0)"/>
<rect x="191" y="201" width="2" height="2" fill="rgb(128,128,0)" stroke="rgb(128,128,0)"/>
<rect x="195" y="201" width="2" height="2" fill="rgb(128,128,0)" stroke="rgb(128,128,0)"/>
</g>
<g font-family="monospace" font-size="19">
<text x="36" y="791" fill="rgb(255,0,0)" stroke="rgb(255,0,0)">2.09588e-06 &#60;= -log10(Probability) &#60;  2.86203</text>
<text x="36" y="810" fill="rgb(128,128,0)" stroke="rgb(128,128,0)">2.86203 &#60;= -log10(Probability) &#60;  5.72405</text>
<text x="36" y="829" fill="rgb(0,255,0)" stroke="rgb(0,255,0)">5.72405 &#60;= -log10(Probability) &#60;  8.58607</text>
<text x="36" y="848" fill="rgb(0,128,128)" stroke="rgb(0,128,128)">8.58607 &#60;= -log10(Probability) &#60;  11.4481</text>
<text x="36" y="867" fill="rgb(0,0,255)" stroke="rgb(0,0,255)">11.4481 &#60;= -log10(Probability) &#60;= 14.3101</text>
<text x="36" y="888" fill="rgb(0,0,0)" stroke="rgb(0,0,0)">temp_partition_output.pfs</text>
</g>
</svg>
