<?xml version="1.0" encoding="UTF-8" standalone="no"?>
<!DOCTYPE svg PUBLIC "-//W3C//DTD SVG 1.1//EN" "http://www.w3.org/Graphics/SVG/1.1/DTD/svg11.dtd">
<svg xmlns="http://www.w3.org/2000/svg" xmlns:xlink="http://www.w3.org/1999/xlink" xml:space="preserve" font-family="monospace" font-size="24" fill="rgb(255,255,255)" stroke="rgb(0,0,0)" viewBox="0 0 790 905">
<g transform="scale(3.07393)">
<g font-family="monospace" font-size="19">
<line style="fill:none;stroke-width:1" stroke="rgb(0,0,0)" x1="40" y1="74" x2="186" y2="74"/>
<text x="191" y="81" fill="rgb(0,0,0)" stroke="rgb(0,0,0)">1</text>
<line style="fill:none;stroke-width:1" stroke="rgb(0,0,0)" x1="40" y1="65" x2="40" y2="74"/>
<text x="33" y="60" fill="rgb(0,0,0)" stroke="rgb(0,0,0)">1</text>
<line style="fill:none;stroke-width:1" stroke="rgb(0,0,0)" x1="76" y1="110" x2="186" y2="110"/>
<text x="191" y="117" fill="rgb(0,0,0)" stroke="rgb(0,0,0)">10</text>
<line style="fill:none;stroke-width:1" stroke="rgb(0,0,0)" x1="76" y1="65" x2="76" y2="110"/>
<text x="61" y="60" fill="rgb(0,0,0)" stroke="rgb(0,0,0)">10</text>
<line style="fill:none;stroke-width:1" stroke="rgb(0,0,0)" x1="116" y1="150" x2="186" y2="150"/>
<text x="191" y="157" fill="rgb(0,0,0)" stroke="rgb(0,0,0)">20</text>
<line style="fill:none;stroke-width:1" stroke="rgb(0,0,0)" x1="116" y1="65" x2="116" y2="150"/>
<text x="101" y="60" fill="rgb(0,0,0)" stroke="rgb(0,0,0)">20</text>
<line style="fill:none;stroke-width:1" stroke="rgb(0,0,0)" x1="156" y1="190" x2="186" y2="190"/>
<line style="fill:none;stroke-width:1" stroke="rgb(0,0,0)" x1="156" y1="65" x2="156" y2="190"/>
<line style="fill:none;stroke-width:1" stroke="rgb(0,0,0)" x1="176" y1="210" x2="186" y2="210"/>
<text x="191" y="217" fill="rgb(0,0,0)" stroke="rgb(0,0,0)">35</text>
<line style="fill:none;stroke-width:1" stroke="rgb(0,0,0)" x1="176" y1="65" x2="176" y2="210"/>
<text x="161" y="60" fill="rgb(0,0,0)" stroke="rgb(0,0,0)">35</text>
<line style="fill:none;stroke-width:1" stroke="rgb(0,0,0)" x1="40" y1="74" x2="176" y2="210"/>
</g>
<rect x="87" y="73" width="2" height="2" fill="rgb(0,0,255)" stroke="rgb(0,0,255)"/>
<rect x="147" y="73" width="2" height="2" fill="rgb(0,0,255)" stroke="rgb(0,0,255)"/>
<rect x="83" y="77" width="2" height="2" fill="rgb(0,0,255)" stroke="rgb(0,0,255)"/>
<rect x="107" y="77" width="2" height="2" fill="rgb(0,128,128)" stroke="rgb(0,128,128)"/>
<rect x="143" y="77" width="2" height="2" fill="rgb(0,0,255)" stroke="rgb(0,0,255)"/>
<rect x="83" y="81" width="2" height="2" fill="rgb(0,128,128)" stroke="rgb(0,128,128)"/>
<rect x="103" y="81" width="2" height="2" fill="rgb(0,128,128)" stroke="rgb(0,128,128)"/>
<rect x="107" y="81" width="2" height="2" fill="rgb(0,255,0)" stroke="rgb(0,255,0)"/>
<rect x="127" y="81" width="2" height="2" fill="rgb(0,0,255)" stroke="rgb(0,0,255)"/>
<rect x="135" y="81" width="2" height="2" fill="rgb(0,128,128)" stroke="rgb(0,128,128)"/>
<rect x="143" y="81" width="2" height="2" fill="rgb(0,128,128)" stroke="rgb(0,128,128)"/>
<rect x="79" y="85" width="2" height="2" fill="rgb(0,128,128)" stroke="rgb(0,128,128)"/>
<rect x="83" y="85" width="2" height="2" fill="rgb(0,0,255)" stroke="rgb(0,0,255)"/>
<rect x="99" y="85" width="2" height="2" fill="rgb(0,128,128)" stroke="rgb(0,128,128)"/>
<rect x="103" y="85" width="2" height="2" fill="rgb(0,255,0)" stroke="rgb(0,255,0)"/>
<rect x="107" y="85" width="2" height="2" fill="rgb(0,128,128)" stroke="rgb(0,128,128)"/>
<rect x="111" y="85" width="2" height="2" fill="rgb(0,0,255)" stroke="rgb(0,0,255)"/>
<rect x="123" y="85" width="2" height="2" fill="rgb(0,0,255)" stroke="rgb(0,0,255)"/>
<rect x="127" y="85" width="2" height="2" fill="rgb(0,128,128)" stroke="rgb(0,128,128)"/>
<rect x="131" y="85" width="2" height="2" fill="rgb(0,128,128)" stroke="rgb(0,128,128)"/>
<rect x="135" y="85" width="2" height="2" fill="rgb(0,0,255)" stroke="rgb(0,0,255)"/>
<rect x="139" y="85" width="2" height="2" fill="rgb(0,128,128)" stroke="rgb(0,128,128)"/>
<rect x="143" y="85" width="2" height="2" fill="rgb(0,128,128)" stroke="rgb(0,128,128)"/>
<rect x="155" y="85" width="2" height="2" fill="rgb(255,0,0)" stroke="rgb(255,0,0)"/>
<rect x="171" y="85" width="2" height="2" fill="rgb(0,255,0)" stroke="rgb(0,255,0)"/>
<rect x="175" y="85" width="2" height="2" fill="rgb(0,255,0)" stroke="rgb(0,255,0)"/>
<rect x="75" y="89" width="2" height="2" fill="rgb(0,128,128)" stroke="rgb(0,128,128)"/>
<rect x="79" y="89" width="2" height="2" fill="rgb(0,128,128)" stroke="rgb(0,128,128)"/>
<rect x="99" y="89" width="2" height="2" fill="rgb(0,255,0)" stroke="rgb(0,255,0)"/>
<rect x="103" y="89" width="2" height="2" fill="rgb(0,0,255)" stroke="rgb(0,0,255)"/>
<rect x="107" y="89" width="2" height="2" fill="rgb(0,0,255)" stroke="rgb(0,0,255)"/>
<rect x="123" y="89" width="2" height="2" fill="rgb(0,128,128)" stroke="rgb(0,128,128)"/>
<rect x="127" y="89" width="2" height="2" fill="rgb(0,0,255)" stroke="rgb(0,0,255)"/>
<rect x="131" y="89" width="2" height="2" fill="rgb(0,0,255)" stroke="rgb(0,0,255)"/>
<rect x="135" y="89" width="2" height="2" fill="rgb(0,128,128)" stroke="rgb(0,128,128)"/>
<rect x="139" y="89" width="2" height="2" fill="rgb(0,128,128)" stroke="rgb(0,128,128)"/>
<rect x="151" y="89" width="2" height="2" fill="rgb(255,0,0)" stroke="rgb(255,0,0)"/>
<rect x="167" y="89" width="2" height="2" fill="rgb(0,128,128)" stroke="rgb(0,128,128)"/>
<rect x="171" y="89" width="2" height="2" fill="rgb(0,255,0)" stroke="rgb(0,255,0)"/>
<rect x="87" y="93" width="2" height="2" fill="rgb(0,128,128)" stroke="rgb(0,128,128)"/>
<rect x="95" y="93" width="2" height="2" fill="rgb(0,255,0)" stroke="rgb(0,255,0)"/>
<rect x="119" y="93" width="2" height="2" fill="rgb(0,128,128)" stroke="rgb(0,128,128)"/>
<rect x="147" y="93" width="2" height="2" fill="rgb(255,0,0)" stroke="rgb(255,0,0)"/>
<rect x="83" y="97" width="2" height="2" fill="rgb(0,128,128)" stroke="rgb(0,128,128)"/>
<rect x="103" y="97" width="2" height="2" fill="rgb(0,128,128)" stroke="rgb(0,128,128)"/>
<rect x="107" y="97" width="2" height="2" fill="rgb(0,0,255)" stroke="rgb(0,0,255)"/>
<rect x="127" y="97" width="2" height="2" fill="rgb(0,128,128)" stroke="rgb(0,128,128)"/>
<rect x="135" y="97" width="2" height="2" fill="rgb(0,255,0)" stroke="rgb(0,255,0)"/>
<rect x="143" y="97" width="2" height="2" fill="rgb(255,0,0)" stroke="rgb(255,0,0)"/>
<rect x="99" y="101" width="2" height="2" fill="rgb(0,128,128)" stroke="rgb(0,128,128)"/>
<rect x="103" y="101" width="2" height="2" fill="rgb(0,0,255)" stroke="rgb(0,0,255)"/>
<rect x="107" y="101" width="2" height="2" fill="rgb(0,0,255)" stroke="rgb(0,0,255)"/>
<rect x="111" y="101" width="2" height="2" fill="rgb(0,128,128)" stroke="rgb(0,128,128)"/>
<rect x="123" y="101" width="2" height="2" fill="rgb(0,128,128)" stroke="rgb(0,128,128)"/>
<rect x="131" y="101" width="2" height="2" fill="rgb(0,255,0)" stroke="rgb(0,255,0)"/>
<rect x="139" y="101" width="2" height="2" fill="rgb(255,0,0)" stroke="rgb(255,0,0)"/>
<rect x="171" y="101" width="2" height="2" fill="rgb(0,128,128)" stroke="rgb(0,128,128)"/>
<rect x="103" y="105" width="2" height="2" fill="rgb(0,0,255)" stroke="rgb(0,0,255)"/>
<rect x="107" y="105" width="2" height="2" fill="rgb(0,128,128)" stroke="rgb(0,128,128)"/>
<rect x="127" y="105" width="2" height="2" fill="rgb(128,128,0)" stroke="rgb(128,128,0)"/>
<rect x="135" y="105" width="2" height="2" fill="rgb(255,0,0)" stroke="rgb(255,0,0)"/>
<rect x="167" y="105" width="2" height="2" fill="rgb(0,128,128)" stroke="rgb(0,128,128)"/>
<rect x="119" y="109" width="2" height="2" fill="rgb(0,255,0)" stroke="rgb(0,255,0)"/>
<rect x="163" y="109" width="2" height="2" fill="rgb(0,128,128)" stroke="rgb(0,128,128)"/>
<rect x="115" y="113" width="2" height="2" fill="rgb(0,255,0)" stroke="rgb(0,255,0)"/>
<rect x="119" y="113" width="2" height="2" fill="rgb(128,128,0)" stroke="rgb(128,128,0)"/>
<rect x="115" y="117" width="2" height="2" fill="rgb(128,128,0)" stroke="rgb(128,128,0)"/>
<rect x="147" y="117" width="2" height="2" fill="rgb(0,0,255)" stroke="rgb(0,0,255)"/>
<rect x="159" y="117" width="2" height="2" fill="rgb(0,0,255)" stroke="rgb(0,0,255)"/>
<rect x="111" y="121" width="2" height="2" fill="rgb(128,128,0)" stroke="rgb(128,128,0)"/>
<rect x="131" y="121" width="2" height="2" fill="rgb(255,0,0)" stroke="rgb(255,0,0)"/>
<rect x="139" y="121" width="2" height="2" fill="rgb(0,128,128)" stroke="rgb(0,128,128)"/>
<rect x="143" y="121" width="2" height="2" fill="rgb(0,0,255)" stroke="rgb(0,0,255)"/>
<rect x="155" y="121" width="2" height="2" fill="rgb(0,0,255)" stroke="rgb(0,0,255)"/>
<rect x="171" y="121" width="2" height="2" fill="rgb(0,128,128)" stroke="rgb(0,128,128)"/>
<rect x="107" y="125" width="2" height="2" fill="rgb(128,128,0)" stroke="rgb(128,128,0)"/>
<rect x="127" y="125" width="2" height="2" fill="rgb(255,0,0)" stroke="rgb(255,0,0)"/>
<rect x="135" y="125" width="2" height="2" fill="rgb(0,128,128)" stroke="rgb(0,128,128)"/>
<rect x="143" y="125" width="2" height="2" fill="rgb(0,0,255)" stroke="rgb(0,0,255)"/>
<rect x="167" y="125" width="2" height="2" fill="rgb(0,128,128)" stroke="rgb(0,128,128)"/>
<rect x="123" y="129" width="2" height="2" fill="rgb(255,0,0)" stroke="rgb(255,0,0)"/>
<rect x="131" y="129" width="2" height="2" fill="rgb(0,255,0)" stroke="rgb(0,255,0)"/>
<rect x="139" y="129" width="2" height="2" fill="rgb(0,0,255)" stroke="rgb(0,0,255)"/>
<rect x="151" y="129" width="2" height="2" fill="rgb(0,0,255)" stroke="rgb(0,0,255)"/>
<rect x="119" y="133" width="2" height="2" fill="rgb(255,0,0)" stroke="rgb(255,0,0)"/>
<rect x="147" y="133" width="2" height="2" fill="rgb(0,0,255)" stroke="rgb(0,0,255)"/>
<rect x="163" y="137" width="2" height="2" fill="rgb(0,128,128)" stroke="rgb(0,128,128)"/>
<rect x="159" y="141" width="2" height="2" fill="rgb(0,128,128)" stroke="rgb(0,128,128)"/>
<rect x="147" y="145" width="2" height="2" fill="rgb(0,0,255)" stroke="rgb(0,0,255)"/>
<rect x="139" y="149" width="2" height="2" fill="rgb(0,0,255)" stroke="rgb(0,0,255)"/>
<rect x="143" y="149" width="2" height="2" fill="rgb(0,0,255)" stroke="rgb(0,0,255)"/>
<rect x="155" y="149" width="2" height="2" fill="rgb(0,255,0)" stroke="rgb(0,255,0)"/>
<rect x="171" y="149" width="2" height="2" fill="rgb(0,0,255)" stroke="rgb(0,0,255)"/>
<rect x="175" y="149" width="2" height="2" fill="rgb(0,0,255)" stroke="rgb(0,0,255)"/>
<rect x="135" y="153" width="2" height="2" fill="rgb(0,0,255)" stroke="rgb(0,0,255)"/>
<rect x="139" y="153" width="2" height="2" fill="rgb(0,0,255)" stroke="rgb(0,0,255)"/>
<rect x="151" y="153" width="2" height="2" fill="rgb(0,255,0)" stroke="rgb(0,255,0)"/>
<rect x="167" y="153" width="2" height="2" fill="rgb(0,0,255)" stroke="rgb(0,0,255)"/>
<rect x="171" y="153" width="2" height="2" fill="rgb(0,0,255)" stroke="rgb(0,0,255)"/>
<rect x="147" y="157" width="2" height="2" fill="rgb(0,255,0)" stroke="rgb(0,255,0)"/>
</g>
<g font-family="monospace" font-size="19">
<text x="36" y="791" fill="rgb(255,0,0)" stroke="rgb(255,0,0)">1.12219e-05 &#60;= -log10(Probability) &#60;  2.22077</text>
<text x="36" y="810" fill="rgb(128,128,0)" stroke="rgb(128,128,0)">2.22077 &#60;= -log10(Probability) &#60;  4.44154</text>
<text x="36" y="829" fill="rgb(0,255,0)" stroke="rgb(0,255,0)">4.44154 &#60;= -log10(Probability) &#60;  6.6623</text>
<text x="36" y="848" fill="rgb(0,128,128)" stroke="rgb(0,128,128)">6.6623 &#60;= -log10(Probability) &#60;  8.88306</text>
<text x="36" y="867" fill="rgb(0,0,255)" stroke="rgb(0,0,255)">8.88306 &#60;= -log10(Probability) &#60;= 11.1038</text>
<text x="36" y="888" fill="rgb(0,0,0)" stroke="rgb(0,0,0)">temp_partition_output.pfs</text>
</g>
</svg>
