<?xml version="1.0" encoding="UTF-8" standalone="no"?>
<!DOCTYPE svg PUBLIC "-//W3C//DTD SVG 1.1//EN" "http://www.w3.org/Graphics/SVG/1.1/DTD/svg11.dtd">
<svg xmlns="http://www.w3.org/2000/svg" xmlns:xlink="http://www.w3.org/1999/xlink" xml:space="preserve" font-family="monospace" font-size="24" fill="rgb(255,255,255)" stroke="rgb(0,0,0)" viewBox="0 0 790 905">
<g transform="scale(1.87648)">
<g font-family="monospace" font-size="19">
<line style="fill:none;stroke-width:1" stroke="rgb(0,0,0)" x1="40" y1="74" x2="350" y2="74"/>
<text x="355" y="81" fill="rgb(0,0,0)" stroke="rgb(0,0,0)">1</text>
<line style="fill:none;stroke-width:1" stroke="rgb(0,0,0)" x1="40" y1="65" x2="40" y2="74"/>
<text x="33" y="60" fill="rgb(0,0,0)" stroke="rgb(0,0,0)">1</text>
<line style="fill:none;stroke-width:1" stroke="rgb(0,0,0)" x1="76" y1="110" x2="350" y2="110"/>
<text x="355" y="117" fill="rgb(0,0,0)" stroke="rgb(0,0,0)">10</text>
<line style="fill:none;stroke-width:1" stroke="rgb(0,0,0)" x1="76" y1="65" x2="76" y2="110"/>
<text x="61" y="60" fill="rgb(0,0,0)" stroke="rgb(0,0,0)">10</text>
<line style="fill:none;stroke-width:1" stroke="rgb(0,0,0)" x1="116" y1="150" x2="350" y2="150"/>
<text x="355" y="157" fill="rgb(0,0,0)" stroke="rgb(0,0,0)">20</text>
<line style="fill:none;stroke-width:1" stroke="rgb(0,0,0)" x1="116" y1="65" x2="116" y2="150"/>
<text x="101" y="60" fill="rgb(0,0,0)" stroke="rgb(0,0,0)">20</text>
<line style="fill:none;stroke-width:1" stroke="rgb(0,0,0)" x1="156" y1="190" x2="350" y2="190"/>
<text x="355" y="197" fill="rgb(0,0,0)" stroke="rgb(0,0,0)">30</text>
<line style="fill:none;stroke-width:1" stroke="rgb(0,0,0)" x1="156" y1="65" x2="156" y2="190"/>
<text x="141" y="60" fill="rgb(0,0,0)" stroke="rgb(0,0,0)">30</text>
<line style="fill:none;stroke-width:1" stroke="rgb(0,0,0)" x1="196" y1="230" x2="350" y2="230"/>
<text x="355" y="237" fill="rgb(0,0,0)" stroke="rgb(0,0,0)">40</text>
<line style="fill:none;stroke-width:1" stroke="rgb(0,0,0)" x1="196" y1="65" x2="196" y2="230"/>
<text x="181" y="60" fill="rgb(0,0,0)" stroke="rgb(0,0,0)">40</text>
<line style="fill:none;stroke-width:1" stroke="rgb(0,0,0)" x1="236" y1="270" x2="350" y2="270"/>
<text x="355" y="277" fill="rgb(0,0,0)" stroke="rgb(0,0,0)">50</text>
<line style="fill:none;stroke-width:1" stroke="rgb(0,0,0)" x1="236" y1="65" x2="236" y2="270"/>
<text x="221" y="60" fill="rgb(0,0,0)" stroke="rgb(0,0,0)">50</text>
<line style="fill:none;stroke-width:1" stroke="rgb(0,0,0)" x1="276" y1="310" x2="350" y2="310"/>
<text x="355" y="317" fill="rgb(0,0,0)" stroke="rgb(0,0,0)">60</text>
<line style="fill:none;stroke-width:1" stroke="rgb(0,0,0)" x1="276" y1="65" x2="276" y2="310"/>
<text x="261" y="60" fill="rgb(0,0,0)" stroke="rgb(0,0,0)">60</text>
<line style="fill:none;stroke-width:1" stroke="rgb(0,0,0)" x1="316" y1="350" x2="350" y2="350"/>
<line style="fill:none;stroke-width:1" stroke="rgb(0,0,0)" x1="316" y1="65" x2="316" y2="350"/>
<line style="fill:none;stroke-width:1" stroke="rgb(0,0,0)" x1="340" y1="374" x2="350" y2="374"/>
<text x="355" y="381" fill="rgb(0,0,0)" stroke="rgb(0,0,0)">76</text>
<line style="fill:none;stroke-width:1" stroke="rgb(0,0,0)" x1="340" y1="65" x2="340" y2="374"/>
<text x="325" y="60" fill="rgb(0,0,0)" stroke="rgb(0,0,0)">76</text>
<line style="fill:none;stroke-width:1" stroke="rgb(0,0,0)" x1="40" y1="74" x2="340" y2="374"/>
</g>
<rect x="135" y="145" width="2" height="2" fill="rgb(0,0,255)" stroke="rgb(0,0,255)"/>
<rect x="159" y="145" width="2" height="2" fill="rgb(0,0,255)" stroke="rgb(0,0,255)"/>
<rect x="163" y="145" width="2" height="2" fill="rgb(0,0,255)" stroke="rgb(0,0,255)"/>
<rect x="191" y="145" width="2" height="2" fill="rgb(0,255,0)" stroke="rgb(0,255,0)"/>
<rect x="195" y="145" width="2" height="2" fill="rgb(0,128,128)" stroke="rgb(0,128,128)"/>
<rect x="203" y="145" width="2" height="2" fill="rgb(0,0,255)" stroke="rgb(0,0,255)"/>
<rect x="235" y="145" width="2" height="2" fill="rgb(0,128,128)" stroke="rgb(0,128,128)"/>
<rect x="155" y="149" width="2" height="2" fill="rgb(0,0,255)" stroke="rgb(0,0,255)"/>
<rect x="183" y="149" width="2" height="2" fill="rgb(128,128,0)" stroke="rgb(128,128,0)"/>
<rect x="231" y="149" width="2" height="2" fill="rgb(0,128,128)" stroke="rgb(0,128,128)"/>
<rect x="155" y="153" width="2" height="2" fill="rgb(0,128,128)" stroke="rgb(0,128,128)"/>
<rect x="179" y="153" width="2" height="2" fill="rgb(128,128,0)" stroke="rgb(128,128,0)"/>
<rect x="183" y="153" width="2" height="2" fill="rgb(0,255,0)" stroke="rgb(0,255,0)"/>
<rect x="215" y="153" width="2" height="2" fill="rgb(0,0,255)" stroke="rgb(0,0,255)"/>
<rect x="223" y="153" width="2" height="2" fill="rgb(0,128,128)" stroke="rgb(0,128,128)"/>
<rect x="231" y="153" width="2" height="2" fill="rgb(0,128,128)" stroke="rgb(0,128,128)"/>
<rect x="151" y="157" width="2" height="2" fill="rgb(0,128,128)" stroke="rgb(0,128,128)"/>
<rect x="155" y="157" width="2" height="2" fill="rgb(0,0,255)" stroke="rgb(0,0,255)"/>
<rect x="175" y="157" width="2" height="2" fill="rgb(128,128,0)" stroke="rgb(128,128,0)"/>
<rect x="179" y="157" width="2" height="2" fill="rgb(0,128,128)" stroke="rgb(0,128,128)"/>
<rect x="183" y="157" width="2" height="2" fill="rgb(0,0,255)" stroke="rgb(0,0,255)"/>
<rect x="187" y="157" width="2" height="2" fill="rgb(0,128,128)" stroke="rgb(0,128,128)"/>
<rect x="211" y="157" width="2" height="2" fill="rgb(0,0,255)" stroke="rgb(0,0,255)"/>
<rect x="215" y="157" width="2" height="2" fill="rgb(0,128,128)" stroke="rgb(0,128,128)"/>
<rect x="219" y="157" width="2" height="2" fill="rgb(0,128,128)" stroke="rgb(0,128,128)"/>
<rect x="223" y="157" width="2" height="2" fill="rgb(0,128,128)" stroke="rgb(0,128,128)"/>
<rect x="227" y="157" width="2" height="2" fill="rgb(0,128,128)" stroke="rgb(0,128,128)"/>
<rect x="231" y="157" width="2" height="2" fill="rgb(0,128,128)" stroke="rgb(0,128,128)"/>
<rect x="243" y="157" width="2" height="2" fill="rgb(255,0,0)" stroke="rgb(255,0,0)"/>
<rect x="259" y="157" width="2" height="2" fill="rgb(0,255,0)" stroke="rgb(0,255,0)"/>
<rect x="263" y="157" width="2" height="2" fill="rgb(0,255,0)" stroke="rgb(0,255,0)"/>
<rect x="147" y="161" width="2" height="2" fill="rgb(0,128,128)" stroke="rgb(0,128,128)"/>
<rect x="151" y="161" width="2" height="2" fill="rgb(0,0,255)" stroke="rgb(0,0,255)"/>
<rect x="171" y="161" width="2" height="2" fill="rgb(128,128,0)" stroke="rgb(128,128,0)"/>
<rect x="175" y="161" width="2" height="2" fill="rgb(0,128,128)" stroke="rgb(0,128,128)"/>
<rect x="179" y="161" width="2" height="2" fill="rgb(0,0,255)" stroke="rgb(0,0,255)"/>
<rect x="183" y="161" width="2" height="2" fill="rgb(0,0,255)" stroke="rgb(0,0,255)"/>
<rect x="211" y="161" width="2" height="2" fill="rgb(0,128,128)" stroke="rgb(0,128,128)"/>
<rect x="215" y="161" width="2" height="2" fill="rgb(0,0,255)" stroke="rgb(0,0,255)"/>
<rect x="219" y="161" width="2" height="2" fill="rgb(0,128,128)" stroke="rgb(0,128,128)"/>
<rect x="223" y="161" width="2" height="2" fill="rgb(0,128,128)" stroke="rgb(0,128,128)"/>
<rect x="227" y="161" width="2" height="2" fill="rgb(0,128,128)" stroke="rgb(0,128,128)"/>
<rect x="239" y="161" width="2" height="2" fill="rgb(255,0,0)" stroke="rgb(255,0,0)"/>
<rect x="255" y="161" width="2" height="2" fill="rgb(0,128,128)" stroke="rgb(0,128,128)"/>
<rect x="259" y="161" width="2" height="2" fill="rgb(0,255,0)" stroke="rgb(0,255,0)"/>
<rect x="159" y="165" width="2" height="2" fill="rgb(0,128,128)" stroke="rgb(0,128,128)"/>
<rect x="167" y="165" width="2" height="2" fill="rgb(128,128,0)" stroke="rgb(128,128,0)"/>
<rect x="207" y="165" width="2" height="2" fill="rgb(0,128,128)" stroke="rgb(0,128,128)"/>
<rect x="235" y="165" width="2" height="2" fill="rgb(255,0,0)" stroke="rgb(255,0,0)"/>
<rect x="155" y="169" width="2" height="2" fill="rgb(0,255,0)" stroke="rgb(0,255,0)"/>
<rect x="179" y="169" width="2" height="2" fill="rgb(0,128,128)" stroke="rgb(0,128,128)"/>
<rect x="183" y="169" width="2" height="2" fill="rgb(0,0,255)" stroke="rgb(0,0,255)"/>
<rect x="215" y="169" width="2" height="2" fill="rgb(0,255,0)" stroke="rgb(0,255,0)"/>
<rect x="223" y="169" width="2" height="2" fill="rgb(0,255,0)" stroke="rgb(0,255,0)"/>
<rect x="231" y="169" width="2" height="2" fill="rgb(255,0,0)" stroke="rgb(255,0,0)"/>
<rect x="175" y="173" width="2" height="2" fill="rgb(0,128,128)" stroke="rgb(0,128,128)"/>
<rect x="179" y="173" width="2" height="2" fill="rgb(0,0,255)" stroke="rgb(0,0,255)"/>
<rect x="183" y="173" width="2" height="2" fill="rgb(0,0,255)" stroke="rgb(0,0,255)"/>
<rect x="187" y="173" width="2" height="2" fill="rgb(0,128,128)" stroke="rgb(0,128,128)"/>
<rect x="211" y="173" width="2" height="2" fill="rgb(0,255,0)" stroke="rgb(0,255,0)"/>
<rect x="219" y="173" width="2" height="2" fill="rgb(0,255,0)" stroke="rgb(0,255,0)"/>
<rect x="227" y="173" width="2" height="2" fill="rgb(255,0,0)" stroke="rgb(255,0,0)"/>
<rect x="259" y="173" width="2" height="2" fill="rgb(0,128,128)" stroke="rgb(0,128,128)"/>
<rect x="179" y="177" width="2" height="2" fill="rgb(0,0,255)" stroke="rgb(0,0,255)"/>
<rect x="183" y="177" width="2" height="2" fill="rgb(0,128,128)" stroke="rgb(0,128,128)"/>
<rect x="215" y="177" width="2" height="2" fill="rgb(0,255,0)" stroke="rgb(0,255,0)"/>
<rect x="223" y="177" width="2" height="2" fill="rgb(255,0,0)" stroke="rgb(255,0,0)"/>
<rect x="255" y="177" width="2" height="2" fill="rgb(0,128,128)" stroke="rgb(0,128,128)"/>
<rect x="195" y="181" width="2" height="2" fill="rgb(0,255,0)" stroke="rgb(0,255,0)"/>
<rect x="199" y="181" width="2" height="2" fill="rgb(255,0,0)" stroke="rgb(255,0,0)"/>
<rect x="203" y="181" width="2" height="2" fill="rgb(128,128,0)" stroke="rgb(128,128,0)"/>
<rect x="251" y="181" width="2" height="2" fill="rgb(0,128,128)" stroke="rgb(0,128,128)"/>
<rect x="191" y="185" width="2" height="2" fill="rgb(0,255,0)" stroke="rgb(0,255,0)"/>
<rect x="195" y="185" width="2" height="2" fill="rgb(255,0,0)" stroke="rgb(255,0,0)"/>
<rect x="199" y="185" width="2" height="2" fill="rgb(128,128,0)" stroke="rgb(128,128,0)"/>
<rect x="207" y="185" width="2" height="2" fill="rgb(128,128,0)" stroke="rgb(128,128,0)"/>
<rect x="191" y="189" width="2" height="2" fill="rgb(255,0,0)" stroke="rgb(255,0,0)"/>
<rect x="195" y="189" width="2" height="2" fill="rgb(128,128,0)" stroke="rgb(128,128,0)"/>
<rect x="203" y="189" width="2" height="2" fill="rgb(128,128,0)" stroke="rgb(128,128,0)"/>
<rect x="235" y="189" width="2" height="2" fill="rgb(0,0,255)" stroke="rgb(0,0,255)"/>
<rect x="247" y="189" width="2" height="2" fill="rgb(0,128,128)" stroke="rgb(0,128,128)"/>
<rect x="183" y="193" width="2" height="2" fill="rgb(0,255,0)" stroke="rgb(0,255,0)"/>
<rect x="187" y="193" width="2" height="2" fill="rgb(255,0,0)" stroke="rgb(255,0,0)"/>
<rect x="219" y="193" width="2" height="2" fill="rgb(255,0,0)" stroke="rgb(255,0,0)"/>
<rect x="227" y="193" width="2" height="2" fill="rgb(0,255,0)" stroke="rgb(0,255,0)"/>
<rect x="231" y="193" width="2" height="2" fill="rgb(0,0,255)" stroke="rgb(0,0,255)"/>
<rect x="243" y="193" width="2" height="2" fill="rgb(0,128,128)" stroke="rgb(0,128,128)"/>
<rect x="259" y="193" width="2" height="2" fill="rgb(0,0,255)" stroke="rgb(0,0,255)"/>
<rect x="263" y="193" width="2" height="2" fill="rgb(0,0,255)" stroke="rgb(0,0,255)"/>
<rect x="179" y="197" width="2" height="2" fill="rgb(0,255,0)" stroke="rgb(0,255,0)"/>
<rect x="183" y="197" width="2" height="2" fill="rgb(128,128,0)" stroke="rgb(128,128,0)"/>
<rect x="215" y="197" width="2" height="2" fill="rgb(255,0,0)" stroke="rgb(255,0,0)"/>
<rect x="223" y="197" width="2" height="2" fill="rgb(0,255,0)" stroke="rgb(0,255,0)"/>
<rect x="231" y="197" width="2" height="2" fill="rgb(0,0,255)" stroke="rgb(0,0,255)"/>
<rect x="255" y="197" width="2" height="2" fill="rgb(0,0,255)" stroke="rgb(0,0,255)"/>
<rect x="211" y="201" width="2" height="2" fill="rgb(255,0,0)" stroke="rgb(255,0,0)"/>
<rect x="219" y="201" width="2" height="2" fill="rgb(0,255,0)" stroke="rgb(0,255,0)"/>
<rect x="227" y="201" width="2" height="2" fill="rgb(0,0,255)" stroke="rgb(0,0,255)"/>
<rect x="239" y="201" width="2" height="2" fill="rgb(0,128,128)" stroke="rgb(0,128,128)"/>
<rect x="195" y="205" width="2" height="2" fill="rgb(128,128,0)" stroke="rgb(128,128,0)"/>
<rect x="199" y="205" width="2" height="2" fill="rgb(255,0,0)" stroke="rgb(255,0,0)"/>
<rect x="207" y="205" width="2" height="2" fill="rgb(255,0,0)" stroke="rgb(255,0,0)"/>
<rect x="235" y="205" width="2" height="2" fill="rgb(0,128,128)" stroke="rgb(0,128,128)"/>
<rect x="191" y="209" width="2" height="2" fill="rgb(128,128,0)" stroke="rgb(128,128,0)"/>
<rect x="195" y="209" width="2" height="2" fill="rgb(255,0,0)" stroke="rgb(255,0,0)"/>
<rect x="199" y="209" width="2" height="2" fill="rgb(255,0,0)" stroke="rgb(255,0,0)"/>
<rect x="207" y="209" width="2" height="2" fill="rgb(255,0,0)" stroke="rgb(255,0,0)"/>
<rect x="195" y="213" width="2" height="2" fill="rgb(255,0,0)" stroke="rgb(255,0,0)"/>
<rect x="203" y="213" width="2" height="2" fill="rgb(255,0,0)" stroke="rgb(255,0,0)"/>
<rect x="207" y="213" width="2" height="2" fill="rgb(0,255,0)" stroke="rgb(0,255,0)"/>
<rect x="251" y="213" width="2" height="2" fill="rgb(0,128,128)" stroke="rgb(0,128,128)"/>
<rect x="199" y="217" width="2" height="2" fill="rgb(255,0,0)" stroke="rgb(255,0,0)"/>
<rect x="203" y="217" width="2" height="2" fill="rgb(128,128,0)" stroke="rgb(128,128,0)"/>
<rect x="247" y="217" width="2" height="2" fill="rgb(0,255,0)" stroke="rgb(0,255,0)"/>
<rect x="235" y="221" width="2" height="2" fill="rgb(128,128,0)" stroke="rgb(128,128,0)"/>
<rect x="215" y="225" width="2" height="2" fill="rgb(0,128,128)" stroke="rgb(0,128,128)"/>
<rect x="219" y="225" width="2" height="2" fill="rgb(0,255,0)" stroke="rgb(0,255,0)"/>
<rect x="223" y="225" width="2" height="2" fill="rgb(0,255,0)" stroke="rgb(0,255,0)"/>
<rect x="227" y="225" width="2" height="2" fill="rgb(0,255,0)" stroke="rgb(0,255,0)"/>
<rect x="231" y="225" width="2" height="2" fill="rgb(128,128,0)" stroke="rgb(128,128,0)"/>
<rect x="243" y="225" width="2" height="2" fill="rgb(128,128,0)" stroke="rgb(128,128,0)"/>
<rect x="259" y="225" width="2" height="2" fill="rgb(0,255,0)" stroke="rgb(0,255,0)"/>
<rect x="263" y="225" width="2" height="2" fill="rgb(128,128,0)" stroke="rgb(128,128,0)"/>
<rect x="211" y="229" width="2" height="2" fill="rgb(0,128,128)" stroke="rgb(0,128,128)"/>
<rect x="215" y="229" width="2" height="2" fill="rgb(0,128,128)" stroke="rgb(0,128,128)"/>
<rect x="219" y="229" width="2" height="2" fill="rgb(0,255,0)" stroke="rgb(0,255,0)"/>
<rect x="223" y="229" width="2" height="2" fill="rgb(0,255,0)" stroke="rgb(0,255,0)"/>
<rect x="227" y="229" width="2" height="2" fill="rgb(128,128,0)" stroke="rgb(128,128,0)"/>
<rect x="231" y="229" width="2" height="2" fill="rgb(0,255,0)" stroke="rgb(0,255,0)"/>
<rect x="239" y="229" width="2" height="2" fill="rgb(128,128,0)" stroke="rgb(128,128,0)"/>
<rect x="243" y="229" width="2" height="2" fill="rgb(0,255,0)" stroke="rgb(0,255,0)"/>
<rect x="255" y="229" width="2" height="2" fill="rgb(0,255,0)" stroke="rgb(0,255,0)"/>
<rect x="259" y="229" width="2" height="2" fill="rgb(128,128,0)" stroke="rgb(128,128,0)"/>
<rect x="263" y="229" width="2" height="2" fill="rgb(128,128,0)" stroke="rgb(128,128,0)"/>
<rect x="215" y="233" width="2" height="2" fill="rgb(0,255,0)" stroke="rgb(0,255,0)"/>
<rect x="219" y="233" width="2" height="2" fill="rgb(0,255,0)" stroke="rgb(0,255,0)"/>
<rect x="223" y="233" width="2" height="2" fill="rgb(128,128,0)" stroke="rgb(128,128,0)"/>
<rect x="227" y="233" width="2" height="2" fill="rgb(0,255,0)" stroke="rgb(0,255,0)"/>
<rect x="239" y="233" width="2" height="2" fill="rgb(0,255,0)" stroke="rgb(0,255,0)"/>
<rect x="255" y="233" width="2" height="2" fill="rgb(128,128,0)" stroke="rgb(128,128,0)"/>
<rect x="259" y="233" width="2" height="2" fill="rgb(128,128,0)" stroke="rgb(128,128,0)"/>
<rect x="223" y="237" width="2" height="2" fill="rgb(0,255,0)" stroke="rgb(0,255,0)"/>
<rect x="231" y="237" width="2" height="2" fill="rgb(128,128,0)" stroke="rgb(128,128,0)"/>
<rect x="255" y="237" width="2" height="2" fill="rgb(128,128,0)" stroke="rgb(128,128,0)"/>
<rect x="227" y="241" width="2" height="2" fill="rgb(128,128,0)" stroke="rgb(128,128,0)"/>
<rect x="239" y="241" width="2" height="2" fill="rgb(128,128,0)" stroke="rgb(128,128,0)"/>
<rect x="235" y="245" width="2" height="2" fill="rgb(128,128,0)" stroke="rgb(128,128,0)"/>
<rect x="263" y="269" width="2" height="2" fill="rgb(0,128,128)" stroke="rgb(0,128,128)"/>
</g>
<g font-family="monospace" font-size="19">
<text x="36" y="791" fill="rgb(255,0,0)" stroke="rgb(255,0,0)">0.000417242 &#60;= -log10(Probability) &#60;  2.17861</text>
<text x="36" y="810" fill="rgb(128,128,0)" stroke="rgb(128,128,0)">2.17861 &#60;= -log10(Probability) &#60;  4.35681</text>
<text x="36" y="829" fill="rgb(0,255,0)" stroke="rgb(0,255,0)">4.35681 &#60;= -log10(Probability) &#60;  6.535</text>
<text x="36" y="848" fill="rgb(0,128,128)" stroke="rgb(0,128,128)">6.535 &#60;= -log10(Probability) &#60;  8.71319</text>
<text x="36" y="867" fill="rgb(0,0,255)" stroke="rgb(0,0,255)">8.71319 &#60;= -log10(Probability) &#60;= 10.8914</text>
<text x="36" y="888" fill="rgb(0,0,0)" stroke="rgb(0,0,0)">temp_partition_output.pfs</text>
</g>
</svg>
