<?xml version="1.0" encoding="UTF-8"?>
<svg id="Layer_1" xmlns="http://www.w3.org/2000/svg" version="1.1" viewBox="0 0 612 792">
  <!-- Generator: Adobe Illustrator 29.6.1, SVG Export Plug-In . SVG Version: 2.1.1 Build 9)  -->
  <defs>
    <style>
      .st0, .st1 {
        font-family: SFCompactDisplay-Bold, 'SF Compact Display';
        font-size: 7.21px;
        font-weight: 700;
        glyph-orientation-vertical: 0deg;
        letter-spacing: -.15em;
        text-orientation: upright;
        writing-mode: tb;
      }

      .st1 {
        fill: #231f20;
      }

      .st2 {
        fill: #676767;
      }
    </style>
  </defs>
  <circle class="st2" cx="256.42" cy="77.03" r="2.88"/>
  <circle class="st2" cx="256.42" cy="83.19" r="2.88"/>
  <circle class="st2" cx="261.33" cy="87.74" r="2.88"/>
  <circle class="st2" cx="256.39" cy="92.53" r="2.88"/>
  <circle class="st2" cx="256.39" cy="98.69" r="2.88"/>
  <circle class="st2" cx="256.39" cy="105.03" r="2.88"/>
  <circle class="st2" cx="256.39" cy="111.02" r="2.88"/>
  <circle class="st2" cx="256.39" cy="120.77" r="2.88"/>
  <circle class="st2" cx="256.39" cy="153.44" r="2.88"/>
  <circle class="st2" cx="256.39" cy="159.84" r="2.88"/>
  <circle class="st2" cx="256.39" cy="166.18" r="2.88"/>
  <circle class="st2" cx="256.39" cy="204.62" r="2.88"/>
  <circle class="st2" cx="256.47" cy="210.81" r="2.88"/>
  <circle class="st2" cx="256.47" cy="217" r="2.88"/>
  <circle class="st2" cx="256.47" cy="223.19" r="2.88"/>
  <circle class="st2" cx="256.28" cy="229.38" r="2.88"/>
  <circle class="st2" cx="256.36" cy="235.57" r="2.88"/>
  <circle class="st2" cx="256.36" cy="241.77" r="2.88"/>
  <circle class="st2" cx="256.36" cy="247.96" r="2.88"/>
  <circle class="st2" cx="256.39" cy="254.15" r="2.88"/>
  <circle class="st2" cx="256.39" cy="260.34" r="2.88"/>
  <circle class="st2" cx="256.39" cy="266.53" r="2.88"/>
  <circle class="st2" cx="244.69" cy="204.62" r="2.88"/>
  <circle class="st2" cx="244.77" cy="210.81" r="2.88"/>
  <circle class="st2" cx="244.77" cy="217" r="2.88"/>
  <circle class="st2" cx="244.77" cy="223.19" r="2.88"/>
  <circle class="st2" cx="244.58" cy="229.38" r="2.88"/>
  <circle class="st2" cx="244.66" cy="235.57" r="2.88"/>
  <circle class="st2" cx="244.66" cy="241.77" r="2.88"/>
  <circle class="st2" cx="244.66" cy="247.96" r="2.88"/>
  <circle class="st2" cx="244.69" cy="254.15" r="2.88"/>
  <circle class="st2" cx="244.69" cy="260.34" r="2.88"/>
  <circle class="st2" cx="244.69" cy="266.53" r="2.88"/>
  <circle class="st2" cx="294.87" cy="251.58" r="2.88"/>
  <circle class="st2" cx="294.95" cy="257.77" r="2.88"/>
  <circle class="st2" cx="294.95" cy="263.96" r="2.88"/>
  <circle class="st2" cx="294.95" cy="270.15" r="2.88"/>
  <circle class="st2" cx="294.76" cy="276.34" r="2.88"/>
  <circle class="st2" cx="294.84" cy="282.53" r="2.88"/>
  <circle class="st2" cx="294.84" cy="288.72" r="2.88"/>
  <circle class="st2" cx="294.84" cy="294.91" r="2.88"/>
  <circle class="st2" cx="306.52" cy="251.58" r="2.88"/>
  <circle class="st2" cx="306.6" cy="257.77" r="2.88"/>
  <circle class="st2" cx="306.6" cy="263.96" r="2.88"/>
  <circle class="st2" cx="306.6" cy="270.15" r="2.88"/>
  <circle class="st2" cx="306.41" cy="276.34" r="2.88"/>
  <circle class="st2" cx="306.49" cy="282.53" r="2.88"/>
  <circle class="st2" cx="306.49" cy="288.72" r="2.88"/>
  <circle class="st2" cx="306.49" cy="294.91" r="2.88"/>
  <circle class="st2" cx="294.87" cy="174.75" r="2.88"/>
  <circle class="st2" cx="294.95" cy="180.94" r="2.88"/>
  <circle class="st2" cx="294.95" cy="187.13" r="2.88"/>
  <circle class="st2" cx="294.95" cy="205.86" r="2.88"/>
  <circle class="st2" cx="294.76" cy="212.05" r="2.88"/>
  <circle class="st2" cx="294.84" cy="218.24" r="2.88"/>
  <circle class="st2" cx="294.84" cy="224.43" r="2.88"/>
  <circle class="st2" cx="294.84" cy="232.48" r="2.88"/>
  <circle class="st2" cx="306.52" cy="174.75" r="2.88"/>
  <circle class="st2" cx="306.6" cy="180.94" r="2.88"/>
  <circle class="st2" cx="306.6" cy="187.13" r="2.88"/>
  <circle class="st2" cx="306.6" cy="205.86" r="2.88"/>
  <circle class="st2" cx="306.41" cy="212.05" r="2.88"/>
  <circle class="st2" cx="306.49" cy="218.24" r="2.88"/>
  <circle class="st2" cx="306.49" cy="224.43" r="2.88"/>
  <circle class="st2" cx="306.49" cy="232.48" r="2.88"/>
  <circle class="st2" cx="244.54" cy="153.41" r="2.88"/>
  <circle class="st2" cx="244.62" cy="159.6" r="2.88"/>
  <circle class="st2" cx="244.62" cy="165.79" r="2.88"/>
  <circle class="st2" cx="241.01" cy="187.76" r="2.88"/>
  <circle class="st2" cx="234.82" cy="187.84" r="2.88"/>
  <circle class="st2" cx="228.63" cy="187.84" r="2.88"/>
  <circle class="st2" cx="241.01" cy="199.28" r="2.88"/>
  <circle class="st2" cx="234.82" cy="199.37" r="2.88"/>
  <circle class="st2" cx="228.63" cy="199.37" r="2.88"/>
  <circle class="st2" cx="311.46" cy="228.95" r="2.88"/>
  <circle class="st2" cx="300.31" cy="246.25" r="2.88"/>
  <circle class="st2" cx="290.98" cy="239.87" r="2.88"/>
  <circle class="st2" cx="300.44" cy="200.43" r="2.88"/>
  <circle class="st2" cx="291.11" cy="194.05" r="2.88"/>
  <circle class="st2" cx="292.82" cy="301.11" r="2.88"/>
  <circle class="st2" cx="308.54" cy="301.11" r="2.88"/>
  <circle class="st2" cx="306.41" cy="307.3" r="2.88"/>
  <circle class="st2" cx="300.59" cy="310.18" r="2.88"/>
  <circle class="st2" cx="294.76" cy="307.3" r="2.88"/>
  <circle class="st2" cx="257.67" cy="273.46" r="2.88"/>
  <circle class="st2" cx="254.17" cy="279.22" r="2.88"/>
  <circle class="st2" cx="247.27" cy="279.22" r="2.88"/>
  <circle class="st2" cx="243.47" cy="273.2" r="2.88"/>
  <circle class="st2" cx="334.91" cy="256.6" r="2.88"/>
  <circle class="st2" cx="334.71" cy="262.79" r="2.88"/>
  <circle class="st2" cx="334.8" cy="268.98" r="2.88"/>
  <circle class="st2" cx="334.8" cy="275.17" r="2.88"/>
  <circle class="st2" cx="334.8" cy="281.37" r="2.88"/>
  <circle class="st2" cx="334.82" cy="287.56" r="2.88"/>
  <circle class="st2" cx="334.82" cy="293.75" r="2.88"/>
  <circle class="st2" cx="334.82" cy="299.94" r="2.88"/>
  <circle class="st2" cx="334.81" cy="207.07" r="2.88"/>
  <circle class="st2" cx="334.81" cy="200.88" r="2.88"/>
  <circle class="st2" cx="334.62" cy="213.26" r="2.88"/>
  <circle class="st2" cx="334.7" cy="219.45" r="2.88"/>
  <circle class="st2" cx="324.96" cy="174.03" r="2.88"/>
  <circle class="st2" cx="324.96" cy="167.84" r="2.88"/>
  <circle class="st2" cx="324.77" cy="180.22" r="2.88"/>
  <circle class="st2" cx="324.85" cy="186.41" r="2.88"/>
  <circle class="st2" cx="334.7" cy="225.65" r="2.88"/>
  <circle class="st2" cx="334.7" cy="231.84" r="2.88"/>
  <circle class="st2" cx="334.73" cy="238.03" r="2.88"/>
  <circle class="st2" cx="334.73" cy="244.22" r="2.88"/>
  <circle class="st2" cx="334.73" cy="250.41" r="2.88"/>
  <circle class="st2" cx="271.23" cy="50.94" r="2.88"/>
  <circle class="st2" cx="239.69" cy="126.33" r="2.88"/>
  <circle class="st2" cx="234.82" cy="132.06" r="2.88"/>
  <circle class="st2" cx="235.14" cy="140.09" r="2.88"/>
  <circle class="st2" cx="239.93" cy="146.22" r="2.88"/>
  <circle class="st2" cx="239.69" cy="169.65" r="2.88"/>
  <circle class="st2" cx="235.26" cy="174.24" r="2.88"/>
  <circle class="st2" cx="245.35" cy="183.26" r="2.88"/>
  <circle class="st2" cx="221.2" cy="186.22" r="2.88"/>
  <circle class="st2" cx="220.9" cy="201.21" r="2.88"/>
  <circle class="st2" cx="214.24" cy="199.44" r="2.88"/>
  <circle class="st2" cx="211.61" cy="193.39" r="2.88"/>
  <circle class="st2" cx="214.61" cy="187.34" r="2.88"/>
  <circle class="st2" cx="240.97" cy="178.36" r="2.88"/>
  <circle class="st2" cx="287.16" cy="68.36" r="2.88"/>
  <circle class="st2" cx="280.97" cy="68.36" r="2.88"/>
  <circle class="st2" cx="274.78" cy="68.39" r="2.88"/>
  <circle class="st2" cx="268.59" cy="68.39" r="2.88"/>
  <circle class="st2" cx="262.4" cy="68.39" r="2.88"/>
  <circle class="st2" cx="286.92" cy="56.7" r="2.88"/>
  <circle class="st2" cx="280.73" cy="56.7" r="2.88"/>
  <circle class="st2" cx="274.54" cy="56.73" r="2.88"/>
  <circle class="st2" cx="268.35" cy="56.73" r="2.88"/>
  <circle class="st2" cx="262.16" cy="56.73" r="2.88"/>
  <circle class="st2" cx="240.16" cy="116.21" r="2.88"/>
  <circle class="st2" cx="244.65" cy="76.85" r="2.88"/>
  <circle class="st2" cx="244.73" cy="83.04" r="2.88"/>
  <circle class="st2" cx="244.73" cy="92.53" r="2.88"/>
  <circle class="st2" cx="244.73" cy="98.72" r="2.88"/>
  <circle class="st2" cx="244.76" cy="104.92" r="2.88"/>
  <circle class="st2" cx="244.76" cy="111.11" r="2.88"/>
  <circle class="st2" cx="244.76" cy="120.61" r="2.88"/>
  <circle class="st2" cx="310.76" cy="112.14" r="2.88"/>
  <circle class="st2" cx="289.11" cy="140" r="2.88"/>
  <circle class="st2" cx="306.71" cy="117.92" r="2.88"/>
  <circle class="st2" cx="306.71" cy="124.11" r="2.88"/>
  <circle class="st2" cx="306.52" cy="130.3" r="2.88"/>
  <circle class="st2" cx="306.6" cy="136.49" r="2.88"/>
  <circle class="st2" cx="306.6" cy="142.68" r="2.88"/>
  <circle class="st2" cx="306.6" cy="148.87" r="2.88"/>
  <circle class="st2" cx="306.63" cy="155.06" r="2.88"/>
  <circle class="st2" cx="306.63" cy="161.26" r="2.88"/>
  <circle class="st2" cx="294.94" cy="117.92" r="2.88"/>
  <circle class="st2" cx="294.94" cy="124.11" r="2.88"/>
  <circle class="st2" cx="294.75" cy="130.3" r="2.88"/>
  <circle class="st2" cx="294.83" cy="136.49" r="2.88"/>
  <circle class="st2" cx="294.83" cy="142.68" r="2.88"/>
  <circle class="st2" cx="294.83" cy="148.87" r="2.88"/>
  <circle class="st2" cx="294.86" cy="155.06" r="2.88"/>
  <circle class="st2" cx="294.86" cy="161.26" r="2.88"/>
  <circle class="st2" cx="306.63" cy="167.45" r="2.88"/>
  <circle class="st2" cx="294.71" cy="76.41" r="2.88"/>
  <circle class="st2" cx="294.79" cy="82.6" r="2.88"/>
  <circle class="st2" cx="294.79" cy="88.79" r="2.88"/>
  <circle class="st2" cx="294.79" cy="94.98" r="2.88"/>
  <circle class="st2" cx="294.6" cy="101.17" r="2.88"/>
  <circle class="st2" cx="294.68" cy="107.37" r="2.88"/>
  <circle class="st2" cx="306.36" cy="76.41" r="2.88"/>
  <circle class="st2" cx="306.44" cy="82.6" r="2.88"/>
  <circle class="st2" cx="306.44" cy="88.79" r="2.88"/>
  <circle class="st2" cx="306.44" cy="94.98" r="2.88"/>
  <circle class="st2" cx="306.25" cy="101.17" r="2.88"/>
  <circle class="st2" cx="306.33" cy="107.37" r="2.88"/>
</svg>