<?xml version="1.0" encoding="UTF-8"?><svg id="a" xmlns="http://www.w3.org/2000/svg" width="196.52" height="169.41" viewBox="0 0 196.52 169.41"><defs><style>.b,.c,.d,.e,.f,.g,.h,.i,.j,.k,.l{isolation:isolate;}.b,.e{opacity:.95;}.m{stroke:#0d090a;stroke-miterlimit:10;stroke-width:.31px;}.m,.n,.e,.o,.p{fill:none;}.n,.e,.o{stroke:#000;stroke-width:.4px;}.d{letter-spacing:-.04em;}.d,.f,.g,.h,.i,.j,.k,.l{fill:#231f20;}.d,.f,.h,.q,.i,.j,.k,.l{font-family:Arial-BoldMT, Arial;font-weight:700;}.d,.i{font-size:3.12px;}.o{stroke-dasharray:.75 .75;}.f{letter-spacing:-.04em;}.f,.k{font-size:3.12px;}.g{font-size:3.56px;}.h{font-size:3.26px;letter-spacing:-.04em;}.p{stroke:#a1a1a1;stroke-width:.5px;}.r{font-family:ArialMT, Arial;}.j{font-size:3.12px;}.l{font-size:3.12px;}</style></defs><line class="e" x1="60.84" y1="134.1" x2="64.01" y2="134.1"/><line class="e" x1="60.84" y1="131.67" x2="64.01" y2="131.67"/><line class="e" x1="60.84" y1="129.24" x2="64.01" y2="129.24"/><line class="e" x1="60.84" y1="126.81" x2="64.01" y2="126.81"/><line class="e" x1="60.84" y1="124.38" x2="64.01" y2="124.38"/><line class="e" x1="60.84" y1="121.95" x2="64.01" y2="121.95"/><line class="e" x1="60.84" y1="119.52" x2="64.01" y2="119.52"/><line class="e" x1="59.78" y1="110.84" x2="62.99" y2="110.25"/><line class="e" x1="59.35" y1="108.51" x2="62.56" y2="107.93"/><line class="e" x1="58.93" y1="106.18" x2="62.14" y2="105.6"/><line class="e" x1="58.5" y1="103.86" x2="61.71" y2="103.27"/><line class="e" x1="58.08" y1="101.53" x2="61.29" y2="100.94"/><line class="e" x1="57.66" y1="99.2" x2="60.87" y2="98.62"/><line class="e" x1="57.23" y1="96.88" x2="60.44" y2="96.29"/><line class="e" x1="56.39" y1="89.72" x2="59.6" y2="89.13"/><line class="e" x1="55.97" y1="87.39" x2="59.18" y2="86.81"/><line class="e" x1="55.54" y1="85.06" x2="58.75" y2="84.48"/><line class="e" x1="53.72" y1="75.05" x2="56.93" y2="74.46"/><line class="e" x1="53.29" y1="72.72" x2="56.5" y2="72.14"/><line class="e" x1="52.87" y1="70.4" x2="56.08" y2="69.81"/><g class="b"><line class="n" x1="69.1" y1="81.32" x2="69.27" y2="81.79"/><line class="o" x1="69.53" y1="82.49" x2="69.91" y2="83.55"/><line class="n" x1="70.03" y1="83.9" x2="70.2" y2="84.38"/></g><g class="b"><line class="n" x1="71.33" y1="80.52" x2="71.5" y2="80.99"/><line class="o" x1="71.75" y1="81.69" x2="72.13" y2="82.75"/><line class="n" x1="72.26" y1="83.1" x2="72.43" y2="83.57"/></g><g class="b"><line class="n" x1="73.55" y1="79.71" x2="73.72" y2="80.18"/><line class="o" x1="73.98" y1="80.89" x2="74.36" y2="81.95"/><line class="n" x1="74.48" y1="82.3" x2="74.65" y2="82.77"/></g><g class="b"><line class="n" x1="75.78" y1="78.91" x2="75.95" y2="79.38"/><line class="o" x1="76.2" y1="80.09" x2="76.58" y2="81.14"/><line class="n" x1="76.71" y1="81.5" x2="76.88" y2="81.97"/></g><g class="b"><line class="n" x1="78" y1="78.11" x2="78.17" y2="78.58"/><line class="o" x1="78.42" y1="79.28" x2="78.81" y2="80.34"/><line class="n" x1="78.93" y1="80.69" x2="79.1" y2="81.16"/></g><line class="e" x1="45.02" y1="37.78" x2="42.16" y2="36.21"/><line class="e" x1="43.67" y1="40.38" x2="40.81" y2="38.8"/><line class="e" x1="42.53" y1="42.45" x2="39.67" y2="40.87"/><line class="e" x1="41.39" y1="44.52" x2="38.53" y2="42.94"/><line class="e" x1="39.39" y1="48.14" x2="36.53" y2="46.57"/><line class="e" x1="38.25" y1="50.22" x2="35.39" y2="48.64"/><line class="e" x1="37.11" y1="52.29" x2="34.25" y2="50.71"/><line class="e" x1="35.93" y1="61.95" x2="32.67" y2="61.94"/><line class="e" x1="35.92" y1="64.31" x2="32.66" y2="64.31"/><line class="e" x1="35.91" y1="74.49" x2="32.64" y2="74.49"/><line class="e" x1="35.9" y1="76.86" x2="32.64" y2="76.85"/><line class="e" x1="35.9" y1="79.22" x2="32.63" y2="79.22"/><line class="e" x1="35.89" y1="85.62" x2="32.62" y2="85.62"/><line class="e" x1="35.88" y1="87.99" x2="32.62" y2="87.98"/><line class="e" x1="35.88" y1="90.36" x2="32.61" y2="90.35"/><line class="e" x1="35.87" y1="92.72" x2="32.61" y2="92.71"/><line class="e" x1="35.87" y1="95.09" x2="32.61" y2="95.08"/><line class="e" x1="35.86" y1="99.52" x2="32.6" y2="99.51"/><line class="e" x1="35.85" y1="103.66" x2="32.59" y2="103.65"/><line class="e" x1="35.85" y1="106.03" x2="32.59" y2="106.02"/><line class="e" x1="36.9" y1="109.09" x2="34.31" y2="111"/><line class="e" x1="38.36" y1="110.98" x2="35.77" y2="112.89"/><line class="e" x1="39.83" y1="112.87" x2="37.23" y2="114.78"/><line class="e" x1="41.68" y1="115.29" x2="39.07" y2="117.2"/><line class="e" x1="44.58" y1="118.72" x2="41.98" y2="120.63"/><line class="e" x1="46.05" y1="120.61" x2="43.44" y2="122.52"/><line class="e" x1="43.22" y1="29.92" x2="46.48" y2="29.86"/><line class="e" x1="43.17" y1="27.56" x2="46.43" y2="27.49"/><line class="e" x1="43.12" y1="25.19" x2="46.38" y2="25.13"/><line class="e" x1="43.07" y1="22.83" x2="46.34" y2="22.76"/><line class="e" x1="87.14" y1="89.36" x2="87.14" y2="92.61"/><line class="e" x1="89.5" y1="89.36" x2="89.5" y2="92.61"/><line class="e" x1="91.87" y1="89.36" x2="91.87" y2="92.61"/><line class="e" x1="94.23" y1="89.36" x2="94.23" y2="92.61"/><line class="e" x1="100.64" y1="89.36" x2="100.64" y2="92.61"/><line class="e" x1="103" y1="89.36" x2="103" y2="92.61"/><line class="e" x1="105.37" y1="89.36" x2="105.37" y2="92.61"/><line class="e" x1="109.8" y1="89.36" x2="109.8" y2="92.61"/><line class="e" x1="112.17" y1="89.36" x2="112.17" y2="92.61"/><line class="e" x1="114.53" y1="89.36" x2="114.53" y2="92.61"/><line class="e" x1="116.9" y1="89.36" x2="116.9" y2="92.61"/><line class="e" x1="119.26" y1="89.36" x2="119.26" y2="92.61"/><line class="e" x1="121.63" y1="89.36" x2="121.63" y2="92.61"/><line class="e" x1="133.2" y1="89.36" x2="133.2" y2="92.61"/><line class="e" x1="135.56" y1="89.36" x2="135.56" y2="92.61"/><line class="e" x1="137.93" y1="89.36" x2="137.93" y2="92.61"/><line class="e" x1="142.66" y1="89.36" x2="142.66" y2="92.61"/><line class="e" x1="145.02" y1="89.36" x2="145.02" y2="92.61"/><line class="e" x1="147.39" y1="89.36" x2="147.39" y2="92.61"/><line class="e" x1="149.75" y1="89.36" x2="149.75" y2="92.61"/><line class="e" x1="157.94" y1="89.36" x2="157.94" y2="92.61"/><line class="e" x1="160.31" y1="89.36" x2="160.31" y2="92.61"/><line class="e" x1="162.67" y1="89.36" x2="162.67" y2="92.61"/><line class="e" x1="86.52" y1="134.35" x2="89.69" y2="134.35"/><line class="e" x1="86.52" y1="136.78" x2="89.69" y2="136.78"/><line class="e" x1="86.52" y1="139.21" x2="89.69" y2="139.21"/><line class="e" x1="85.7" y1="141.97" x2="88.23" y2="143.93"/><line class="e" x1="84.38" y1="144.16" x2="86.91" y2="146.13"/><line class="e" x1="82.72" y1="145.98" x2="85.24" y2="147.95"/><line class="e" x1="81.25" y1="148.01" x2="83.77" y2="149.98"/><line class="e" x1="79.85" y1="149.95" x2="82.37" y2="151.92"/><g class="b"><line class="n" x1="69.79" y1="110.54" x2="70.08" y2="110.94"/><line class="o" x1="70.52" y1="111.55" x2="71.18" y2="112.47"/><line class="n" x1="71.39" y1="112.77" x2="71.69" y2="113.18"/></g><g class="b"><line class="n" x1="71.71" y1="109.16" x2="72" y2="109.56"/><line class="o" x1="72.44" y1="110.17" x2="73.1" y2="111.09"/><line class="n" x1="73.32" y1="111.39" x2="73.61" y2="111.8"/></g><g class="b"><line class="n" x1="73.72" y1="107.75" x2="74.01" y2="108.16"/><line class="o" x1="74.45" y1="108.77" x2="75.1" y2="109.68"/><line class="n" x1="75.32" y1="109.98" x2="75.61" y2="110.39"/></g><g class="b"><line class="n" x1="75.75" y1="106.29" x2="76.04" y2="106.69"/><line class="o" x1="76.48" y1="107.3" x2="77.13" y2="108.22"/><line class="n" x1="77.35" y1="108.52" x2="77.64" y2="108.93"/></g><g class="b"><line class="n" x1="77.98" y1="104.66" x2="78.27" y2="105.06"/><line class="o" x1="78.71" y1="105.67" x2="79.36" y2="106.59"/><line class="n" x1="79.58" y1="106.89" x2="79.87" y2="107.3"/></g><line class="e" x1="49.9" y1="36.08" x2="48.32" y2="38.94"/><line class="e" x1="51.97" y1="37.23" x2="50.39" y2="40.08"/><line class="e" x1="54.04" y1="38.37" x2="52.47" y2="41.23"/><line class="e" x1="56.11" y1="39.51" x2="54.54" y2="42.37"/><line class="e" x1="58.33" y1="40.87" x2="56.75" y2="43.73"/><text class="k" transform="translate(56.74 109.81)"><tspan x="0" y="0">G</tspan></text><text class="k" transform="translate(56.29 107.44)"><tspan x="0" y="0">C</tspan></text><text class="k" transform="translate(55.64 105.16)"><tspan x="0" y="0">G</tspan></text><text class="f" transform="translate(55.34 102.85)"><tspan x="0" y="0">A</tspan></text><text class="k" transform="translate(54.93 100.39)"><tspan x="0" y="0">U</tspan></text><text class="k" transform="translate(54.35 97.91)"><tspan x="0" y="0">C</tspan></text><text class="k" transform="translate(53.91 91.51)"><tspan x="0" y="0">U</tspan></text><text class="k" transform="translate(53.29 88.75)"><tspan x="0" y="0">G</tspan></text><text class="k" transform="translate(52.64 86.24)"><tspan x="0" y="0">G</tspan></text><text class="k" transform="translate(50.56 85.08)"><tspan x="0" y="0">C</tspan></text><text class="k" transform="translate(48.65 83.34)"><tspan x="0" y="0">U</tspan></text><text class="k" transform="translate(48.6 80.72)"><tspan x="0" y="0">G</tspan></text><text class="k" transform="translate(50.06 78.64)"><tspan x="0" y="0">C</tspan></text><text class="k" transform="translate(51.03 76.53)"><tspan x="0" y="0">G</tspan></text><text class="f" transform="translate(50.9 74.01)"><tspan x="0" y="0">A</tspan></text><text class="k" transform="translate(50.26 71.39)"><tspan x="0" y="0">C</tspan></text><text class="d" transform="translate(49.78 68.43)"><tspan x="0" y="0">A</tspan></text><text class="k" transform="translate(50.8 65.6)"><tspan x="0" y="0">U</tspan></text><text class="i" transform="translate(53.61 65.07)"><tspan x="0" y="0">C</tspan></text><text class="k" transform="translate(55.7 67.57)"><tspan x="0" y="0">U</tspan></text><text class="k" transform="translate(56.25 70.23)"><tspan x="0" y="0">G</tspan></text><text class="k" transform="translate(56.95 72.84) rotate(.86)"><tspan x="0" y="0">U</tspan></text><text class="k" transform="translate(57.43 75.38)"><tspan x="0" y="0">C</tspan></text><text class="f" transform="translate(59.27 77.34)"><tspan x="0" y="0">A</tspan></text><text class="k" transform="translate(60.94 79.83)"><tspan x="0" y="0">C</tspan></text><text class="k" transform="translate(60.25 82.55)"><tspan x="0" y="0">C</tspan></text><text class="k" transform="translate(58.92 85.03)"><tspan x="0" y="0">C</tspan></text><text class="k" transform="translate(59.45 87.72)"><tspan x="0" y="0">C</tspan></text><text class="f" transform="translate(59.9 90.34)"><tspan x="0" y="0">A</tspan></text><text class="k" transform="translate(62.21 91.95)"><tspan x="0" y="0">U</tspan></text><text class="k" transform="translate(62.77 94.71) scale(.95 1)"><tspan x="0" y="0">U</tspan></text><text class="k" transform="translate(60.78 96.65)"><tspan x="0" y="0">G</tspan></text><text class="f" transform="translate(61.39 99.06)"><tspan x="0" y="0">A</tspan></text><text class="k" transform="translate(61.73 101.66)"><tspan x="0" y="0">U</tspan></text><text class="k" transform="translate(62.15 104.16)"><tspan x="0" y="0">C</tspan></text><text class="k" transform="translate(62.58 106.6)"><tspan x="0" y="0">G</tspan></text><text class="k" transform="translate(63 109.08)"><tspan x="0" y="0">C</tspan></text><text class="k" transform="translate(63.45 111.55)"><tspan x="0" y="0">C</tspan></text><text class="f" transform="translate(66.01 111.99)"><tspan x="0" y="0">A</tspan></text><text class="k" transform="translate(67.6 110.59)"><tspan x="0" y="0">G</tspan></text><text class="k" transform="translate(69.56 109.1)"><tspan x="0" y="0">G</tspan></text><text class="k" transform="translate(71.71 107.6)"><tspan x="0" y="0">G</tspan></text><text class="k" transform="translate(73.93 105.97)"><tspan x="0" y="0">U</tspan></text><text class="k" transform="translate(76.04 104.6)"><tspan x="0" y="0">U</tspan></text><text class="k" transform="translate(75.02 100.9)"><tspan x="0" y="0">G</tspan></text><text class="d" transform="translate(73.7 97.55)"><tspan x="0" y="0">A</tspan></text><text class="k" transform="translate(72.81 94.03)"><tspan x="0" y="0">U</tspan></text><text class="k" transform="translate(71.25 90.64)"><tspan x="0" y="0">U</tspan></text><text class="k" transform="translate(69.63 87.5)"><tspan x="0" y="0">C</tspan></text><text class="k" transform="translate(71.88 86.58)"><tspan x="0" y="0">G</tspan></text><text class="k" transform="translate(74.11 85.53)"><tspan x="0" y="0">G</tspan></text><text class="k" transform="translate(76.33 84.89)"><tspan x="0" y="0">C</tspan></text><text class="k" transform="translate(78.7 83.99)"><tspan x="0" y="0">U</tspan></text><text class="k" transform="translate(80.99 82.76)"><tspan x="0" y="0">G</tspan></text><text class="k" transform="translate(83.69 77.6)"><tspan x="0" y="0">U</tspan></text><text class="i" transform="translate(81.37 76.1)"><tspan x="0" y="0">C</tspan></text><text class="k" transform="translate(78.82 76.2)"><tspan x="0" y="0">U</tspan></text><text class="k" transform="translate(76.27 77.39)"><tspan x="0" y="0">G</tspan></text><text class="k" transform="translate(74.12 78.52)"><tspan x="0" y="0">G</tspan></text><text class="i" transform="translate(71.84 79.14)"><tspan x="0" y="0">C</tspan></text><text class="k" transform="translate(69.73 79.99)"><tspan x="0" y="0">U</tspan></text><text class="k" transform="translate(67.05 77.46)"><tspan x="0" y="0">G</tspan></text><text class="k" transform="translate(67.13 80.73)"><tspan x="0" y="0">G</tspan></text><text class="k" transform="translate(67.89 74.25)"><tspan x="0" y="0">C</tspan></text><text class="k" transform="translate(67.58 71.58)"><tspan x="0" y="0">U</tspan></text><text class="f" transform="translate(67.01 68.86)"><tspan x="0" y="0">A</tspan></text><text class="k" transform="translate(64.48 64.18)"><tspan x="0" y="0">G</tspan></text><text class="k" transform="translate(65.64 66.51)"><tspan x="0" y="0">G</tspan></text><text class="i" transform="translate(63.5 61.91)"><tspan x="0" y="0">C</tspan></text><text class="k" transform="translate(61.36 60.36)"><tspan x="0" y="0">G</tspan></text><text class="k" transform="translate(58.9 59.07)"><tspan x="0" y="0">G</tspan></text><text class="k" transform="translate(56.5 51.99)"><tspan x="0" y="0">G</tspan></text><text class="k" transform="translate(57.49 49.37) scale(.99 1)"><tspan x="0" y="0">U</tspan></text><text class="k" transform="translate(61.77 41.95)"><tspan x="0" y="0">U</tspan></text><text class="d" transform="translate(65.45 42.97)"><tspan x="0" y="0">A</tspan></text><text class="k" transform="translate(69.08 44.56)"><tspan x="0" y="0">U</tspan></text><text class="f" transform="translate(72.08 47.31)"><tspan x="0" y="0">A</tspan></text><text class="k" transform="translate(74.88 50.29)"><tspan x="0" y="0">C</tspan></text><text class="k" transform="translate(77.71 52.56)"><tspan x="0" y="0">G</tspan></text><text class="f" transform="translate(80.11 54.55)"><tspan x="0" y="0">A</tspan></text><text class="k" transform="translate(166.47 89.48)"><tspan x="0" y="0">U</tspan></text><text class="i" transform="translate(167.11 92.25)"><tspan x="0" y="0">C</tspan></text><text class="k" transform="translate(86.74 104.84)"><tspan x="0" y="0">C</tspan></text><text class="f" transform="translate(84.6 106.49)"><tspan x="0" y="0">A</tspan></text><text class="f" transform="translate(82.12 107.78)"><tspan x="0" y="0">A</tspan></text><text class="k" transform="translate(79.63 109.64)"><tspan x="0" y="0">G</tspan></text><text class="f" transform="translate(77.77 111.17)"><tspan x="0" y="0">A</tspan></text><text class="k" transform="translate(75.44 112.81)"><tspan x="0" y="0">C</tspan></text><text class="k" transform="translate(73.51 114.63)"><tspan x="0" y="0">U</tspan></text><text class="k" transform="translate(71.35 115.64)"><tspan x="0" y="0">C</tspan></text><text class="i" transform="translate(71.91 117.88)"><tspan x="0" y="0">C</tspan></text><text class="f" transform="translate(71.84 120.74)"><tspan x="0" y="0">A</tspan></text><text class="k" transform="translate(69.36 121.86)"><tspan x="0" y="0">G</tspan></text><text class="f" transform="translate(66.96 120.43)"><tspan x="0" y="0">A</tspan></text><text class="k" transform="translate(64.36 120.39)"><tspan x="0" y="0">C</tspan></text><text class="f" transform="translate(64.36 122.97)"><tspan x="0" y="0">A</tspan></text><text class="k" transform="translate(64.36 125.31)"><tspan x="0" y="0">C</tspan></text><text class="f" transform="translate(64.36 127.85)"><tspan x="0" y="0">A</tspan></text><text class="k" transform="translate(64.36 130.32)"><tspan x="0" y="0">U</tspan></text><text class="k" transform="translate(64.36 132.77)"><tspan x="0" y="0">C</tspan></text><text class="k" transform="translate(64.36 135.34)"><tspan x="0" y="0">C</tspan></text><text class="f" transform="translate(67.08 135.35)"><tspan x="0" y="0">A</tspan></text><text class="f" transform="translate(70.27 135.35)"><tspan x="0" y="0">A</tspan></text><text class="d" transform="translate(72.95 135.35)"><tspan x="0" y="0">A</tspan></text><text class="k" transform="translate(75.7 135.35)"><tspan x="0" y="0">U</tspan></text><text class="k" transform="translate(78.51 135.35)"><tspan x="0" y="0">G</tspan></text><text class="d" transform="translate(81.47 135.35)"><tspan x="0" y="0">A</tspan></text><text class="k" transform="translate(83.94 135.33)"><tspan x="0" y="0">G</tspan></text><text class="k" transform="translate(83.93 137.83)"><tspan x="0" y="0">G</tspan></text><text class="k" transform="translate(84.03 140.13)"><tspan x="0" y="0">C</tspan></text><text class="k" transform="translate(83.25 142.39)"><tspan x="0" y="0">G</tspan></text><text class="k" transform="translate(82.04 144.37)"><tspan x="0" y="0">C</tspan></text><text class="k" transform="translate(80.33 146.21)"><tspan x="0" y="0">U</tspan></text><text class="k" transform="translate(78.76 148.22)"><tspan x="0" y="0">G</tspan></text><text class="k" transform="translate(77.54 150.35)"><tspan x="0" y="0">C</tspan></text><text class="f" transform="translate(75.82 152.21)"><tspan x="0" y="0">A</tspan></text><text class="k" transform="translate(74.99 155.04)"><tspan x="0" y="0">U</tspan></text><text class="k" transform="translate(76.17 157.34)"><tspan x="0" y="0">G</tspan></text><text class="k" transform="translate(79.06 157.86)"><tspan x="0" y="0">U</tspan></text><text class="k" transform="translate(81.38 156.67)"><tspan x="0" y="0">G</tspan></text><text class="k" transform="translate(82.32 153.96)"><tspan x="0" y="0">G</tspan></text><text class="k" transform="translate(83.93 151.98)"><tspan x="0" y="0">C</tspan></text><text class="f" transform="translate(85.45 149.52)"><tspan x="0" y="0">A</tspan></text><text class="k" transform="translate(87.01 148.11)"><tspan x="0" y="0">G</tspan></text><text class="k" transform="translate(88.38 145.73)"><tspan x="0" y="0">U</tspan></text><text class="k" transform="translate(90.84 145.72)"><tspan x="0" y="0">C</tspan></text><text class="k" transform="translate(91.78 143.19)"><tspan x="0" y="0">U</tspan></text><text class="k" transform="translate(89.87 140.56)"><tspan x="0" y="0">G</tspan></text><text class="k" transform="translate(90.02 137.89)"><tspan x="0" y="0">C</tspan></text><text class="k" transform="translate(89.97 135.4)"><tspan x="0" y="0">C</tspan></text><text class="k" transform="translate(92.77 135.37)"><tspan x="0" y="0">U</tspan></text><text class="k" transform="translate(95.44 135.37)"><tspan x="0" y="0">U</tspan></text><text class="k" transform="translate(98.13 135.37)"><tspan x="0" y="0">U</tspan></text><text class="k" transform="translate(100.61 135.37)"><tspan x="0" y="0">C</tspan></text><text class="k" transform="translate(103.17 135.37)"><tspan x="0" y="0">U</tspan></text><text class="k" transform="translate(105.6 135.37)"><tspan x="0" y="0">U</tspan></text><text class="k" transform="translate(108.1 135.37)"><tspan x="0" y="0">U</tspan></text><text class="k" transform="translate(110.48 135.37)"><tspan x="0" y="0">U</tspan></text><text class="k" transform="translate(66.96 91.55)"><tspan x="0" y="0">40</tspan></text><text class="k" transform="translate(166.28 99.59)"><tspan x="0" y="0">240</tspan></text><text class="k" transform="translate(84.82 113.18)"><tspan x="0" y="0">280</tspan></text><text class="k" transform="translate(98.3 145.96)"><tspan x="0" y="0">320</tspan></text><line class="m" x1="94.64" y1="145.02" x2="97.36" y2="145.02"/><text class="k" transform="translate(54.99 46.1)"><tspan x="0" y="0">C</tspan></text><text class="k" transform="translate(50.79 43.72)"><tspan x="0" y="0">C</tspan></text><text class="k" transform="translate(48.89 42.7)"><tspan x="0" y="0">U</tspan></text><text class="k" transform="translate(46.88 41.49)"><tspan x="0" y="0">U</tspan></text><text class="k" transform="translate(45 39.71) rotate(.14)"><tspan x="0" y="0">C</tspan></text><text class="l" transform="translate(43.94 42.06) rotate(1.29)"><tspan x="0" y="0">C</tspan></text><text class="j" transform="translate(42.81 44.36) rotate(-1.33)"><tspan x="0" y="0">U</tspan></text><text class="j" transform="translate(41.58 46.47) rotate(.13)"><tspan x="0" y="0">C</tspan></text><text class="k" transform="translate(42.14 49.38)"><tspan x="0" y="0">C</tspan></text><text class="i" transform="translate(39.59 49.99) rotate(-2.3)"><tspan x="0" y="0">C</tspan></text><text class="k" transform="translate(38.6 52.25) rotate(.55)"><tspan x="0" y="0">U</tspan></text><text class="i" transform="translate(36.98 54.3) rotate(-.39)"><tspan x="0" y="0">C</tspan></text><text class="f" transform="translate(37.78 57.25)"><tspan x="0" y="0">A</tspan></text><text class="k" transform="translate(38.03 60.29)"><tspan x="0" y="0">C</tspan></text><text class="i" transform="translate(36.55 62.79)"><tspan x="0" y="0">C</tspan></text><text class="k" transform="translate(36.27 65.18)"><tspan x="0" y="0">G</tspan></text><text class="i" transform="translate(38.15 67.38)"><tspan x="0" y="0">C</tspan></text><text class="k" transform="translate(39.97 69.45)"><tspan x="0" y="0">U</tspan></text><text class="k" transform="translate(39.53 71.97)"><tspan x="0" y="0">C</tspan></text><text class="k" transform="translate(38.56 74.41)"><tspan x="0" y="0">C</tspan></text><text class="f" transform="translate(36.26 75.33)"><tspan x="0" y="0">A</tspan></text><text class="k" transform="translate(36.26 77.93)"><tspan x="0" y="0">U</tspan></text><text class="k" transform="translate(36.26 80.55)"><tspan x="0" y="0">G</tspan></text><text class="k" transform="translate(38.58 82.41)"><tspan x="0" y="0">U</tspan></text><text class="k" transform="translate(38.6 85.1)"><tspan x="0" y="0">G</tspan></text><text class="k" transform="translate(36.26 86.57)"><tspan x="0" y="0">C</tspan></text><text class="k" transform="translate(36.26 89.15)"><tspan x="0" y="0">G</tspan></text><text class="k" transform="translate(36.26 91.43)"><tspan x="0" y="0">U</tspan></text><text class="k" transform="translate(36.26 93.8)"><tspan x="0" y="0">C</tspan></text><text class="k" transform="translate(36.26 96.21)"><tspan x="0" y="0">C</tspan></text><text class="k" transform="translate(36.26 100.57)"><tspan x="0" y="0">C</tspan></text><text class="k" transform="translate(36.26 104.69)"><tspan x="0" y="0">U</tspan></text><text class="k" transform="translate(36.26 107.25)"><tspan x="0" y="0">C</tspan></text><text class="k" transform="translate(37.07 109.6)"><tspan x="0" y="0">C</tspan></text><text class="k" transform="translate(38.79 111.39)"><tspan x="0" y="0">C</tspan></text><text class="k" transform="translate(40.21 113.41)"><tspan x="0" y="0">G</tspan></text><text class="f" transform="translate(42.08 115.4)"><tspan x="0" y="0">A</tspan></text><text class="f" transform="translate(44.93 116.07)"><tspan x="0" y="0">A</tspan></text><text class="k" transform="translate(44.8 119.11)"><tspan x="0" y="0">G</tspan></text><text class="k" transform="translate(46.47 120.85)"><tspan x="0" y="0">C</tspan></text><text class="k" transform="translate(47.93 123.43)"><tspan x="0" y="0">U</tspan></text><text class="k" transform="translate(48.74 125.96)"><tspan x="0" y="0">G</tspan></text><text class="k" transform="translate(47.63 128.54)"><tspan x="0" y="0">C</tspan></text><text class="k" transform="translate(44.72 128.63)"><tspan x="0" y="0">G</tspan></text><text class="k" transform="translate(42.56 126.94)"><tspan x="0" y="0">C</tspan></text><text class="k" transform="translate(40.56 124.86)"><tspan x="0" y="0">G</tspan></text><text class="k" transform="translate(39.31 122.66)"><tspan x="0" y="0">C</tspan></text><text class="k" transform="translate(36.71 119.43)"><tspan x="0" y="0">U</tspan></text><text class="k" transform="translate(35 117.1)"><tspan x="0" y="0">C</tspan></text><text class="k" transform="translate(33.3 115.04)"><tspan x="0" y="0">G</tspan></text><text class="k" transform="translate(31.63 112.99)"><tspan x="0" y="0">G</tspan></text><text class="k" transform="translate(29.02 112.21)"><tspan x="0" y="0">U</tspan></text><text class="k" transform="translate(27.58 109.4)"><tspan x="0" y="0">C</tspan></text><text class="k" transform="translate(29.55 107.43)"><tspan x="0" y="0">G</tspan></text><text class="d" transform="translate(29.61 104.7) rotate(-.05)"><tspan x="0" y="0">A</tspan></text><text class="f" transform="translate(27.97 102.47)"><tspan x="0" y="0">A</tspan></text><text class="k" transform="translate(30.04 100.59)"><tspan x="0" y="0">G</tspan></text><text class="f" transform="translate(27.97 98.09)"><tspan x="0" y="0">A</tspan></text><text class="k" transform="translate(29.99 96.23)"><tspan x="0" y="0">G</tspan></text><text class="k" transform="translate(30.04 93.66)"><tspan x="0" y="0">G</tspan></text><text class="f" transform="translate(30.04 91.38)"><tspan x="0" y="0">A</tspan></text><text class="k" transform="translate(30.04 88.88)"><tspan x="0" y="0">C</tspan></text><text class="k" transform="translate(30.04 86.49)"><tspan x="0" y="0">G</tspan></text><text class="d" transform="translate(27.86 85.1)"><tspan x="0" y="0">A</tspan></text><text class="k" transform="translate(27.72 82.41)"><tspan x="0" y="0">C</tspan></text><text class="k" transform="translate(30.04 80.23)"><tspan x="0" y="0">C</tspan></text><text class="f" transform="translate(30.04 77.99)"><tspan x="0" y="0">A</tspan></text><text class="k" transform="translate(30.04 75.19)"><tspan x="0" y="0">U</tspan></text><text class="k" transform="translate(28.08 72.72)"><tspan x="0" y="0">C</tspan></text><text class="k" transform="translate(27.34 69.87)"><tspan x="0" y="0">C</tspan></text><text class="k" transform="translate(28.28 67.41)"><tspan x="0" y="0">C</tspan></text><text class="k" transform="translate(30.27 65.35)"><tspan x="0" y="0">C</tspan></text><text class="k" transform="translate(30.07 62.56)"><tspan x="0" y="0">G</tspan></text><text class="f" transform="translate(28.64 59.81)"><tspan x="0" y="0">A</tspan></text><text class="k" transform="translate(28.34 56.69)"><tspan x="0" y="0">U</tspan></text><text class="f" transform="translate(29.52 53.59)"><tspan x="0" y="0">A</tspan></text><text class="j" transform="translate(31.4 51.53) rotate(-.33)"><tspan x="0" y="0">G</tspan></text><text class="d" transform="translate(32.89 48.58) rotate(.36)"><tspan x="0" y="0">A</tspan></text><text class="j" transform="translate(34.04 46.45) rotate(.01)"><tspan x="0" y="0">G</tspan></text><text class="j" transform="translate(35.89 43.45)"><tspan x="0" y="0">G</tspan></text><text class="f" transform="translate(37.19 40.81) rotate(1.84)"><tspan x="0" y="0">A</tspan></text><text class="j" transform="translate(38.35 38.69) rotate(-.43)"><tspan x="0" y="0">G</tspan></text><text class="j" transform="translate(39.51 36.34) rotate(.86)"><tspan x="0" y="0">G</tspan></text><text class="f" transform="translate(40.72 31.29)"><tspan x="0" y="0">A</tspan></text><text class="k" transform="translate(40.75 28.85)"><tspan x="0" y="0">C</tspan></text><text class="k" transform="translate(40.72 26.3)"><tspan x="0" y="0">C</tspan></text><text class="k" transform="translate(40.69 23.75)"><tspan x="0" y="0">G</tspan></text><text class="k" transform="translate(40.36 20.97)"><tspan x="0" y="0">G</tspan></text><text class="k" transform="translate(41.39 18.43)"><tspan x="0" y="0">U</tspan></text><text class="i" transform="translate(43.66 17.59)"><tspan x="0" y="0">C</tspan></text><text class="k" transform="translate(46.29 18.52)"><tspan x="0" y="0">U</tspan></text><text class="k" transform="translate(47.19 21.09)"><tspan x="0" y="0">U</tspan></text><text class="k" transform="translate(46.71 23.6)"><tspan x="0" y="0">C</tspan></text><text class="k" transform="translate(46.63 26.17)"><tspan x="0" y="0">G</tspan></text><text class="k" transform="translate(46.77 28.78)"><tspan x="0" y="0">G</tspan></text><text class="k" transform="translate(46.91 31.44)"><tspan x="0" y="0">U</tspan></text><text class="k" transform="translate(47.11 34.33)"><tspan x="0" y="0">C</tspan></text><text class="h" transform="translate(49.07 35.67) scale(1.02 1)"><tspan x="0" y="0">A</tspan></text><text class="d" transform="translate(51.36 36.81)"><tspan x="0" y="0">A</tspan></text><text class="k" transform="translate(53.64 38.05)"><tspan x="0" y="0">G</tspan></text><text class="k" transform="translate(55.89 39.45)"><tspan x="0" y="0">G</tspan></text><text class="k" transform="translate(58.22 40.81)"><tspan x="0" y="0">G</tspan></text><text class="k" transform="translate(41.58 105.33)"><tspan x="0" y="0">120</tspan></text><line class="m" x1="39.23" y1="104.18" x2="41.95" y2="104.18"/><line class="m" x1="82.32" y1="109.72" x2="84.24" y2="111.64"/><line class="m" x1="162.68" y1="96.1" x2="164.76" y2="97.85"/><line class="m" x1="64.65" y1="90.36" x2="67.37" y2="90.36"/><text class="f" transform="translate(83.31 80.61)"><tspan x="0" y="0">A</tspan></text><text class="k" transform="translate(57.04 57.13)"><tspan x="0" y="0">G</tspan></text><text class="k" transform="translate(56.1 54.78) scale(.99 1)"><tspan x="0" y="0">U</tspan></text><text class="k" transform="translate(58.2 135.36)"><tspan x="0" y="0">G</tspan></text><text class="k" transform="translate(58.1 132.78)"><tspan x="0" y="0">G</tspan></text><text class="f" transform="translate(58.26 130.29)"><tspan x="0" y="0">A</tspan></text><text class="k" transform="translate(58.26 127.89)"><tspan x="0" y="0">U</tspan></text><text class="k" transform="translate(58.18 125.31)"><tspan x="0" y="0">G</tspan></text><text class="k" transform="translate(58.27 122.89)"><tspan x="0" y="0">U</tspan></text><text class="k" transform="translate(58.07 120.37)"><tspan x="0" y="0">G</tspan></text><text class="f" transform="translate(56.27 117.87)"><tspan x="0" y="0">A</tspan></text><text class="k" transform="translate(56.06 114.99)"><tspan x="0" y="0">G</tspan></text><text class="k" transform="translate(57.26 112.34)"><tspan x="0" y="0">G</tspan></text><text class="k" transform="translate(84.8 60.1)"><tspan x="0" y="0">U</tspan></text><text class="f" transform="translate(85.88 88.8)"><tspan x="0" y="0">A</tspan></text><text class="k" transform="translate(88.2 88.8)"><tspan x="0" y="0">G</tspan></text><text class="k" transform="translate(90.78 88.8)"><tspan x="0" y="0">C</tspan></text><text class="k" transform="translate(93.16 88.8)"><tspan x="0" y="0">U</tspan></text><text class="k" transform="translate(95.04 86.91)"><tspan x="0" y="0">G</tspan></text><text class="i" transform="translate(97.7 86.86)"><tspan x="0" y="0">C</tspan></text><text class="k" transform="translate(99.25 88.8)"><tspan x="0" y="0">G</tspan></text><text class="k" transform="translate(101.88 88.8)"><tspan x="0" y="0">C</tspan></text><text class="k" transform="translate(104.27 88.8)"><tspan x="0" y="0">U</tspan></text><text class="i" transform="translate(106.56 87.15)"><tspan x="0" y="0">C</tspan></text><text class="k" transform="translate(108.61 88.8)"><tspan x="0" y="0">C</tspan></text><text class="k" transform="translate(111.05 88.8)"><tspan x="0" y="0">C</tspan></text><text class="k" transform="translate(113.56 88.8)"><tspan x="0" y="0">C</tspan></text><text class="k" transform="translate(115.84 88.8)"><tspan x="0" y="0">U</tspan></text><text class="k" transform="translate(118.09 88.8)"><tspan x="0" y="0">G</tspan></text><text class="i" transform="translate(120.54 88.8)"><tspan x="0" y="0">C</tspan></text><text class="k" transform="translate(121.91 86.86)"><tspan x="0" y="0">U</tspan></text><text class="f" transform="translate(123.96 84.62)"><tspan x="0" y="0">A</tspan></text><text class="k" transform="translate(126.24 84.13)"><tspan x="0" y="0">G</tspan></text><text class="f" transform="translate(128.69 84.59)"><tspan x="0" y="0">A</tspan></text><text class="d" transform="translate(130.11 86.65)"><tspan x="0" y="0">A</tspan></text><text class="k" transform="translate(132.08 88.8)"><tspan x="0" y="0">C</tspan></text><text class="i" transform="translate(134.4 88.8)"><tspan x="0" y="0">C</tspan></text><text class="k" transform="translate(136.88 88.8)"><tspan x="0" y="0">U</tspan></text><text class="k" transform="translate(139.21 86.75)"><tspan x="0" y="0">C</tspan></text><text class="k" transform="translate(141.5 88.8)"><tspan x="0" y="0">C</tspan></text><text class="d" transform="translate(143.87 88.8)"><tspan x="0" y="0">A</tspan></text><text class="f" transform="translate(146.22 88.8)"><tspan x="0" y="0">A</tspan></text><text class="f" transform="translate(148.6 88.8)"><tspan x="0" y="0">A</tspan></text><text class="i" transform="translate(150.3 87.47)"><tspan x="0" y="0">C</tspan></text><text class="f" transform="translate(152.46 86.43)"><tspan x="0" y="0">A</tspan></text><text class="f" transform="translate(154.58 87.47)"><tspan x="0" y="0">A</tspan></text><text class="k" transform="translate(156.75 88.8)"><tspan x="0" y="0">G</tspan></text><text class="k" transform="translate(159.16 88.8)"><tspan x="0" y="0">C</tspan></text><text class="k" transform="translate(161.57 88.8)"><tspan x="0" y="0">U</tspan></text><text class="k" transform="translate(164 88.43)"><tspan x="0" y="0">C</tspan></text><text class="k" transform="translate(89.5 83.38)"><tspan x="0" y="0">200</tspan></text><line class="m" x1="88.91" y1="83.7" x2="87.55" y2="86.06"/><text class="f" transform="translate(166.3 94.78)"><tspan x="0" y="0">A</tspan></text><text class="d" transform="translate(163.98 95.6)"><tspan x="0" y="0">A</tspan></text><text class="k" transform="translate(161.49 95.47)"><tspan x="0" y="0">G</tspan></text><text class="k" transform="translate(159.08 95.47)"><tspan x="0" y="0">G</tspan></text><text class="k" transform="translate(156.86 95.47)"><tspan x="0" y="0">U</tspan></text><text class="i" transform="translate(154.63 96.81)"><tspan x="0" y="0">C</tspan></text><text class="i" transform="translate(152.58 97.67)"><tspan x="0" y="0">C</tspan></text><text class="f" transform="translate(150.33 96.85)"><tspan x="0" y="0">A</tspan></text><text class="k" transform="translate(148.66 95.47)"><tspan x="0" y="0">U</tspan></text><text class="k" transform="translate(146.39 95.47)"><tspan x="0" y="0">U</tspan></text><text class="k" transform="translate(144 95.47)"><tspan x="0" y="0">U</tspan></text><text class="k" transform="translate(141.38 95.47)"><tspan x="0" y="0">G</tspan></text><text class="k" transform="translate(139.38 97.29)"><tspan x="0" y="0">U</tspan></text><text class="f" transform="translate(136.81 95.47)"><tspan x="0" y="0">A</tspan></text><text class="k" transform="translate(131.9 95.47)"><tspan x="0" y="0">G</tspan></text><text class="k" transform="translate(134.3 95.47)"><tspan x="0" y="0">G</tspan></text><text class="f" transform="translate(130.67 97.3)"><tspan x="0" y="0">A</tspan></text><text class="k" transform="translate(128.31 98.62)"><tspan x="0" y="0">G</tspan></text><text class="f" transform="translate(123.77 98.82)"><tspan x="0" y="0">A</tspan></text><text class="f" transform="translate(126.23 99.2)"><tspan x="0" y="0">A</tspan></text><text class="k" transform="translate(121.79 97.63)"><tspan x="0" y="0">C</tspan></text><text class="k" transform="translate(120.45 95.47)"><tspan x="0" y="0">G</tspan></text><text class="k" transform="translate(118.24 95.47)"><tspan x="0" y="0">U</tspan></text><text class="f" transform="translate(115.82 95.47)"><tspan x="0" y="0">A</tspan></text><text class="k" transform="translate(113.45 95.47)"><tspan x="0" y="0">G</tspan></text><text class="k" transform="translate(111.04 95.47)"><tspan x="0" y="0">G</tspan></text><text class="k" transform="translate(108.47 95.47)"><tspan x="0" y="0">G</tspan></text><text class="k" transform="translate(106.47 97.41)"><tspan x="0" y="0">U</tspan></text><text class="f" transform="translate(104.33 95.47)"><tspan x="0" y="0">A</tspan></text><text class="k" transform="translate(101.7 95.47)"><tspan x="0" y="0">G</tspan></text><text class="k" transform="translate(99.54 95.47)"><tspan x="0" y="0">U</tspan></text><text class="i" transform="translate(97.53 97.12)"><tspan x="0" y="0">C</tspan></text><text class="d" transform="translate(95.12 97.12)"><tspan x="0" y="0">A</tspan></text><text class="f" transform="translate(93.17 95.47)"><tspan x="0" y="0">A</tspan></text><text class="k" transform="translate(90.68 95.47)"><tspan x="0" y="0">G</tspan></text><text class="k" transform="translate(88.33 95.47)"><tspan x="0" y="0">C</tspan></text><text class="k" transform="translate(85.89 95.47)"><tspan x="0" y="0">U</tspan></text><text class="k" transform="translate(86.28 98.91)"><tspan x="0" y="0">U</tspan></text><text class="k" transform="translate(87.18 101.75)"><tspan x="0" y="0">C</tspan></text><text class="k" transform="translate(57.32 46.93)"><tspan x="0" y="0">C</tspan></text><text class="k" transform="translate(52.76 44.88)"><tspan x="0" y="0">C</tspan></text><text class="k" transform="translate(82.58 56.98)"><tspan x="0" y="0">G</tspan></text><path class="p" d="M86.99,60.3s4.66,4.74,3.74,10.39-4.7,14.13-4.12,16.25"/><g class="c"><text class="g" transform="translate(58.22 138.57) scale(.98 1)"><tspan class="q" x="0" y="0">5</tspan><tspan class="r" x="1.98" y="0">สน</tspan></text></g><g class="c"><text class="g" transform="translate(113.59 135.68) scale(.98 1)"><tspan class="q" x="0" y="0">3</tspan><tspan class="r" x="1.98" y="0">สน</tspan></text></g><text class="k" transform="translate(68.47 59.64)"><tspan x="0" y="0">80</tspan></text><line class="m" x1="65.74" y1="60.6" x2="68.18" y2="59.39"/><line class="m" x1="27.07" y1="64.24" x2="29.79" y2="64.24"/><text class="k" transform="translate(20.5 65.18)"><tspan x="0" y="0">160</tspan></text></svg>